<?xml version="1.0" encoding="UTF-8" standalone="no"?>
<svg
   baseprofile="tiny"
   stroke="#ffffff"
   stroke-linecap="round"
   stroke-linejoin="round"
   stroke-width="0.5"
   version="1.2"
   viewBox="0 0 853.79999 651.49994"
   id="svg1"
   sodipodi:docname="europe.svg"
   width="853.79999"
   height="651.49994"
   inkscape:version="1.4.2 (f4327f4, 2025-05-13)"
   xmlns:inkscape="http://www.inkscape.org/namespaces/inkscape"
   xmlns:sodipodi="http://sodipodi.sourceforge.net/DTD/sodipodi-0.dtd"
   xmlns="http://www.w3.org/2000/svg"
   xmlns:svg="http://www.w3.org/2000/svg">
  <defs
     id="defs1" />
  <sodipodi:namedview
     id="namedview1"
     pagecolor="#ffffff"
     bordercolor="#000000"
     borderopacity="0.25"
     inkscape:showpageshadow="2"
     inkscape:pageopacity="0.0"
     inkscape:pagecheckerboard="0"
     inkscape:deskcolor="#d1d1d1"
     inkscape:zoom="1.00875"
     inkscape:cx="354.39901"
     inkscape:cy="319.7026"
     inkscape:window-width="1920"
     inkscape:window-height="1009"
     inkscape:window-x="-8"
     inkscape:window-y="-8"
     inkscape:window-maximized="1"
     inkscape:current-layer="svg1" />
  <path
     class="state"
     d="m 509.24997,527.35 0.5,0.4 2,2.9 1.4,0.5 1.9,1.3 1.4,3.2 0.1,2.2 -0.5,2.6 0.3,2.1 -0.8,0.8 0.7,2 0.2,1.9 1.2,2.2 1.2,1.1 1.3,2.4 1.6,-0.2 1.3,1.1 v 1.1 l 1.1,1.8 -0.8,2.6 -1.7,0.8 -1.2,3.1 -0.3,2 -0.6,0.5 -1.9,0.3 -1.7,1.3 1,2.2 -0.9,0.7 -0.3,1.5 -0.7,0.7 -2.7,-0.9 -0.7,-2.5 -1.7,-2.7 -4.9,-2.6 -1.2,-1.1 0.4,-1.5 -0.1,-1.4 -1.4,-2.4 0.3,-2.6 0.8,-2.2 -0.3,-2.7 0.1,-2.1 -0.7,-2.9 0.5,-2.1 0.9,-1.3 -0.2,-2.2 -1.5,-1.1 -1.6,-0.2 v -3.1 l -0.3,-0.6 h 1.7 l -1.7,-2.8 3.2,-5.3 1.1,0.3 0.8,2.1 z"
     id="AL"
     name="Albania" />
  <path
     class="state"
     d="m 277.94997,528.05 -2.8,1.1 -0.7,-0.4 v -2.1 l 0.9,-0.7 2.6,0.6 z"
     id="AD"
     name="Andorra" />
  <path
     class="state"
     d="m 829.14997,571.65 -3.2,-2.8 -2.3,-1.7 -1.6,-0.7 -3.5,0.4 -2.9,-0.9 -1.8,-0.9 0.5,-0.6 -1.9,-3 -0.8,-1.9 1,-1.4 0.2,-2.3 -1.7,-3.3 -1.7,-1.2 -1.3,-1.6 4.4,-0.3 5.3,-1.3 3.2,0.3 1.1,-0.2 3.5,-0.1 -0.5,-0.7 2.3,-0.5 1.3,1.5 1.6,1 -0.9,0.9 2.3,1 h 1.2 l 3.3,2.5 v 0.7 l -1.9,1.5 -0.2,1.1 3.2,3.4 2.4,1.4 3.2,1.5 0.2,0.9 -0.9,2.5 h -3 l 0.6,0.9 1.9,1.2 6.1,4.4 1.5,-0.3 2.2,0.9 0.2,1.3 -1,1.4 1.9,1.4 0.8,1.5 -1.8,0.5 1.4,1.5 0.5,2.6 -2.2,-0.1 -2.5,0.5 -3,-4.7 0.1,-1 -3.1,-2.1 0.1,-1.7 -0.8,-1.2 -1.7,0.2 -1.9,0.9 -2.9,-1.6 -1.2,0.2 -0.3,-1.1 -1.8,-1.7 z"
     id="AM"
     name="Armenia" />
  <path
     class="state"
     d="m 462.34997,434.15 -0.9,2.4 0.1,0.8 1.6,2.9 2.3,2.9 -0.6,0.7 -0.6,1.9 0.7,2 -3.9,0.3 -2.5,-0.9 -1.3,1.4 2.6,0.7 0.5,1.1 -0.5,1.4 -2.2,1.2 0.4,1.5 -0.5,0.7 1.1,1.6 -0.3,1.8 -2.5,0.5 -1.8,1.7 -1.3,0.9 -0.1,1.9 -2.4,-0.5 -1.6,0.2 -2.3,1.1 -2.8,-0.2 -2.6,0.2 -1.9,0.7 -1,1.3 -3,1.2 -5,-0.7 -5,-0.9 -2.6,-0.5 -4,-0.3 -8.6,-1.5 -1.1,-0.5 -3.1,-3.5 v -2.3 l -4.7,1.5 -3.1,-0.2 -3.4,0.3 -1.4,0.6 -1.2,2.2 -1.1,0.4 -2.1,-0.4 -0.9,-0.8 -3,-0.3 -0.5,-1.5 -0.8,-0.3 -2,1.9 -2.3,-0.4 -1.5,-0.8 -0.4,-1 -3.3,-0.8 0.3,-0.8 -1.1,-2.5 1,-3 -0.9,-0.7 1.7,-0.5 0.7,-0.5 3.5,1.6 0.9,1.4 1.2,0.3 -0.1,1.3 1.6,-0.5 1,-1.6 0.2,-1.9 2.8,-0.1 2.7,0.4 1.4,1.9 3.8,-0.5 1.1,-0.9 3.9,-1.5 5.7,-0.5 0.1,-1.4 2,0.3 1.5,0.8 2.5,-0.5 1.1,0.5 0.2,1.1 1.2,0.9 1.7,0.4 0.3,-1.5 -0.3,-1.9 -1.7,-0.3 0.6,-1.3 -0.1,-1.3 -2.5,-2.8 0.6,-1.3 3.1,-1.8 2.9,-0.8 1,-1 0.7,-2.9 2.3,0.9 1.3,-0.9 0.2,-2.8 2.2,1.2 0.8,1.3 3.9,0.4 1.4,-0.7 2.5,0.4 0.1,-1.1 1.3,-1.6 h 1.2 l 0.3,-3.2 1.2,-0.2 1.6,0.8 1.4,-0.4 4.8,1.7 1.5,-0.1 3,1.7 3.8,0.2 1.2,-0.9 5.1,1.5 z"
     id="AT"
     name="Austria" />
  <path
     class="state"
     d="m 324.54997,401.05 1.6,-0.5 0.8,0.8 1.2,0.1 3,2.3 -0.4,1.5 1.7,0.7 0.4,2 -2.3,1.3 -0.6,1.7 -1.7,-0.7 -1.3,1.3 -1.4,2.5 -0.2,1.7 2,2.4 -1.1,1.7 -3.4,0.4 -2.8,-2.6 -3.3,-1.5 -1.7,-0.1 -0.4,-2 -0.6,-0.6 0.8,-2.7 -1.9,0.6 -0.5,1.4 -1.3,0.6 -2.2,0.3 -2.3,-0.3 -0.5,-0.6 0.7,-1.4 -0.7,-0.7 0.4,-1.6 -1.6,-1.1 -3.6,-0.4 -0.9,0.3 -0.6,-2 -4.2,-1.1 -0.5,-2 -1.6,-1.8 -3.2,1 -2.9,-2.4 v -1.2 l -0.9,-2.2 5.1,-2.5 4.7,-1.7 0.3,1.3 1.2,0.7 1.2,-0.6 3.9,1.1 3.2,-1.5 0.6,-1.2 2.1,0.3 -0.2,-0.9 1.4,-0.7 1.5,0.8 1.5,-1 1.1,1.3 2.5,-0.8 0.5,1.6 2.6,1.4 1.9,-0.4 1.7,1.3 2.6,1.1 -1,2.9 -1.1,1.3 z"
     id="BE"
     name="Belgium" />
  <path
     class="state"
     d="m 614.14997,508.85 0.2,3.7 -0.9,1.8 -2,-0.6 -2.2,0.5 -1,2 -1.2,1.2 v 2.6 l 0.4,4.2 -1.6,0.7 -2.9,3.7 3,1.8 1.7,2.2 2.4,2.5 0.5,1.2 -1.7,-0.2 -0.9,0.4 h -1.8 l -1.5,0.6 -3.4,-2.5 -3.5,0.3 -1.5,1.1 -3.4,0.4 -1,2.2 -1.9,0.3 -0.3,1.4 -1.6,-0.5 -1.6,1.1 0.7,1 0.9,2.7 -0.2,0.8 -2.5,1.2 -1.8,-0.3 -3.2,0.4 -3.4,0.9 -1.7,-1.1 -3.7,-1.2 -0.9,0.6 -2.4,-1.4 -1.2,-1.7 -1.6,0.5 -4.2,-0.1 -0.2,0.9 -1.9,0.2 -3,1.1 -2.6,-0.2 -2.4,0.2 -1,1 -3,-0.2 v -4.2 l 0.5,-1.7 -0.9,-1 -1.7,-3.3 -3.4,-1.8 -3.3,-3.2 1,-0.3 1.1,-1.7 -1.4,-2.9 v -3.3 l 1.1,-0.6 1.8,-0.1 1.1,-1.6 1.6,-1.7 0.3,-1.4 -1.6,-1 -1.3,-1.6 -2.9,-1.5 -2.4,-3.9 -0.6,-2.4 0.4,-2.3 2.1,-1 0.2,-1.9 0.9,-0.7 4.3,2.5 -1.8,2 0.9,1.8 3.7,-0.6 3.9,0.3 5.3,1 3.5,0.4 2.5,-0.5 9.4,1.7 4.2,0.2 2.3,-0.6 1.6,-0.9 1.2,-1.6 3.3,-2.1 3.2,-1.2 4.4,-0.9 2.9,-0.4 4.5,2.3 3.2,0.4 0.9,0.6 1.7,-0.5 2.5,2.6 2.2,0.7 2.6,0.5 z"
     id="BG"
     name="Bulgaria" />
  <path
     class="state"
     d="m 492.74997,491.45 2.8,-0.7 1.5,0.8 -0.5,2.5 -1.6,2.7 -0.1,2.6 0.5,0.8 2.4,1.2 3.3,2.9 -0.3,0.8 -3.1,-0.1 -0.5,0.8 3.2,3.7 -0.2,2.2 -2.5,-0.3 -0.7,0.8 -3.2,0.5 1.4,2.2 -2.3,0.2 -2,1.7 -0.5,1.7 0.1,1.5 -1.7,0.2 -0.5,0.7 0.6,3 1.1,1.6 -0.1,0.8 -1.1,1 -1.7,-0.7 -6.2,-3.8 -0.6,-0.9 -1.6,0.1 -1.1,-0.6 0.3,-1.6 -3,-2.5 -1.5,-1.6 -0.4,-2.2 -2.4,-1.1 -5,-4.1 -1.7,-2 -2.8,-2.3 -2.3,-2.4 -1.3,-4 -3.4,-3.2 -1.9,-1.3 -0.1,-1.4 0.3,-5 1.2,-0.6 1.8,0.4 1.7,1.8 1.8,1 2.7,-3.2 3.2,0.3 1.5,-1.2 2.7,1.6 2.5,0.1 2.8,0.7 1.7,-0.6 1.6,1.3 2.2,-1 1.8,0.3 1.8,-0.2 2.6,0.7 2.2,0.2 1.1,0.8 1.3,2.2 z"
     id="BA"
     name="Bosnia and Herzegovina" />
  <path
     class="state"
     d="m 579.04997,320.75 1.8,1.3 1.2,-0.4 1.9,-0.1 3.1,2.2 1.6,-0.9 1.5,-0.3 3.6,1.2 0.2,2.3 1.7,1.5 2.1,-1.3 2.7,-1.1 h 3.4 l 2.7,0.9 2.4,1.8 3.5,1.4 0.4,2.5 -0.6,1.8 2.1,2.1 0.5,1.3 -1.3,2 v 2 l 4.1,2 0.5,0.5 -0.5,1.8 1.4,0.6 1.8,2.4 1.5,1.4 4.9,2.1 0.7,0.8 -0.4,2.8 5.3,0.5 3.2,1.3 v 1.1 l 0.7,1.1 2.8,1.4 0.6,1.7 -2.6,1 -0.3,0.9 -3,1.8 -3.5,-0.2 -2.4,-1.5 -2.9,0.1 -1.4,2.7 3.9,3.3 0.6,1 -0.2,1.5 1,1.5 0.5,3.3 1.6,1.4 1.3,1.8 -5,-0.1 -1.4,0.8 -1.7,-0.4 -1.1,0.5 -2.2,2.3 -0.8,1.2 -1,3.3 1.8,3.6 -0.8,1.4 -2.7,-0.9 -0.5,-1.2 -2,-1.1 -7.1,0.6 -2.3,0.8 -0.6,-0.5 -2.5,-3 -3.8,1.6 -0.6,1.1 -1,-0.3 -0.8,-1.3 -5.1,-1 -1.9,0.7 -1.9,-0.5 -1.2,1.7 -0.8,-1.4 -1.1,-0.4 -3,0.1 -1,-0.3 -1.8,-2.1 h -2.3 l -6.1,-0.9 -6.5,-1.5 -7.8,-0.4 -2.4,0.1 -2.3,0.5 -5.9,0.5 -0.8,1.4 -1.6,1.6 -1.9,1.2 -1.1,-0.5 -1.9,-0.3 -1.1,0.5 0.1,1.4 -1,-1.6 -0.1,-1.3 0.8,-1.5 -0.4,-1.1 0.2,-2.4 -0.8,-1 -1.8,-1 -3.3,-1.3 v -1.2 l 2,-2.7 0.8,-0.5 4,-1.7 0.6,-1.6 -0.9,-3.9 -1.7,-3.6 -2.9,-4.9 -2.1,-5.1 2.9,0.4 1.6,-0.3 3.7,-0.3 1.6,0.9 3.3,-1.3 1.8,0.1 0.8,-2.6 2,0.2 1.4,-1.2 2.1,-0.5 1,-0.7 1.7,2.3 2,-0.2 v -1 l -0.9,-1.1 -1.9,-0.5 0.5,-2 1,-1.5 -0.4,-2.3 1.1,-3 2.6,-0.6 0.8,-0.6 1,-2 3.6,0.1 0.4,-1.1 1.3,-1 -3.9,-1 0.7,-3.1 v -1.8 l 2.6,-0.6 1.2,-1.5 1.1,-0.3 3,0.4 3.1,0.1 0.4,-1.7 2.5,-2.4 1.4,-0.8 z"
     id="BY"
     name="Belarus" />
  <path
     class="state"
     d="m 368.64997,448.35 0.8,1.1 2.6,1.3 h 1.2 l 0.9,0.7 -1,3 -0.5,1.5 0.1,1.7 1.2,0.1 3.3,0.8 0.4,1 1.5,0.8 2.3,0.4 2,-1.9 0.8,0.3 0.5,1.5 -0.5,3.1 0.5,1.8 -1.9,-0.2 -1,-0.9 -1.3,0.3 -0.6,1.8 1.5,3.5 -1.2,0.3 -1.4,-1.9 -0.7,-0.1 -2.9,1.1 -2,-0.8 -0.8,-2.1 -2,0.1 v 2.9 l -0.5,1.1 -2.2,2.6 -0.2,1 0.7,1.7 -1.2,0.7 -0.9,-1.4 -1.3,-1.2 0.4,-1.2 -2.2,-0.6 -2.4,-2 -0.2,-2.5 -1,-0.6 -3.4,2.9 0.6,1.5 -1.6,2.2 -2.4,1.4 -3.1,-0.8 -2.6,1 -2.4,0.5 -1.4,-0.7 -0.9,-1.4 -2.3,-2.3 0.5,-1.7 -0.8,-2.2 -2.2,-0.3 -1.9,0.1 -2.3,1.5 0.5,1.3 -2.3,1.6 -1.4,-0.1 v -1 l 1.5,-1 0.3,-1.5 -0.8,-0.7 1.1,-2.9 3,-2.2 0.5,-2.9 2.1,-0.9 3.8,-4 0.6,-0.9 -1.3,-1.1 1.8,-1.4 h 1.1 l 0.8,0.8 2.7,-0.3 0.8,-1.4 1.5,-0.7 1,0.3 2.8,0.1 3.3,-0.6 2.6,0.2 -0.2,-1.5 1.3,-1.2 h 1.3 l 1.4,1 0.8,-0.2 1.1,0.9 z"
     id="CH"
     name="Switzerland" />
  <path
     class="state"
     d="m 433.44997,399.75 2.1,-0.4 -0.1,-1.9 3.3,0.8 0.3,1.1 1,1.1 4.6,1.1 2.7,1.1 0.8,0.9 3.2,-0.7 1.8,1.2 -0.7,1.1 -1.6,1.2 1.6,0.9 2,1.8 1.5,1.9 1,0.4 3.5,-2.5 -1.7,-2.4 h 1.3 l 2.2,0.6 3.3,1.9 3.6,-0.7 v 1.6 l -1.4,0.5 2.7,2.3 1,0.6 1.8,-1 3.5,1.8 0.5,-0.2 2.7,0.8 0.5,1.8 2.8,2.2 0.5,1.6 -2.8,0.3 -2,1.5 -0.6,0.8 -2.3,1.2 -0.7,3 -1.6,0.8 -2.1,1.9 -1.5,0.7 -1.7,0.2 -3.6,-0.5 -1.4,1.2 -1.1,2.8 -1,-1.6 -5.1,-1.5 -1.2,0.9 -3.8,-0.2 -3,-1.7 -1.5,0.1 -4.8,-1.7 -1.4,0.4 -1.6,-0.8 -1.2,0.2 -0.3,3.2 h -1.2 l -1.3,1.6 -0.1,1.1 -2.5,-0.4 -1.4,0.7 -3.9,-0.4 -0.8,-1.3 -2.2,-1.2 -0.6,-0.7 -2.9,-2.2 h -1.3 l -1.3,-1.6 -2.5,-1.5 -2.9,-2.6 h -1.3 l -2.3,-2 -1.8,-2.7 -1.4,-1.5 1.2,-1.7 -0.6,-1.6 -2.3,-1.3 -2.5,-3.4 0.5,-0.7 1.9,2 1.9,-2.6 1.1,-0.6 2.6,-0.6 2.1,0.4 0.8,-1.3 2,-0.3 0.6,-1 1.6,-0.7 1.1,0.1 0.6,-1.2 4.4,-1 3.5,-1.5 1.9,-0.6 -1.5,-1.5 0.8,-0.6 2.2,0.4 1.5,1.5 v 0.9 l 1.4,0.6 z"
     id="CZ"
     name="Czech Republic" />
  <path
     class="state"
     d="m 422.44997,354.45 -3.4,-0.1 -0.2,-1.7 -1.1,-1 -0.1,-1 4.7,2.6 z m -34.8,-8.1 h -1.8 l -1.4,-0.7 0.8,-1 1.7,0.4 z m 28.3,0.5 -1.3,0.7 h -1.3 l -1.3,1.3 -2.1,-1.1 -0.5,-1.1 0.1,-2.2 0.6,-1.4 2,-0.9 0.9,1.2 1.7,0.6 -0.5,1.7 z m -46.6,-6.6 1.8,0.7 1.6,1.6 0.1,1.4 -1.7,1.6 3.2,-0.3 0.8,1.2 1.7,-0.4 4.5,1.8 3.2,-0.9 0.7,1.4 -0.6,1.5 -2.2,1.6 1.4,1.2 2.1,-0.2 3.6,0.9 3.3,-2.5 1.1,-0.5 3.6,-0.3 5.1,-4.5 5.3,0.9 1.5,1.9 3.7,2.1 3.2,-0.2 1.3,2 0.8,2.5 1.9,1.3 2.8,0.5 0.7,2.6 1.8,4.1 -0.3,2.7 -1.9,1.8 -0.7,1.6 1.6,1.4 3.3,2.1 1.4,1.7 -0.6,2.6 2,2.3 0.8,1.9 -0.7,2.6 -0.8,1.1 1.9,3.1 v 1.6 l 2.2,0.9 1.6,3.2 -0.4,2.3 -1.6,3.6 -0.9,0.7 -1.4,-0.6 v -0.9 l -1.5,-1.5 -2.2,-0.4 -0.8,0.6 1.5,1.5 -1.9,0.6 -3.5,1.5 -4.4,1 -0.6,1.2 -1.1,-0.1 -1.6,0.7 -0.6,1 -2,0.3 -0.8,1.3 -2.1,-0.4 -2.6,0.6 -1.1,0.6 -1.9,2.6 -1.9,-2 -0.5,0.7 2.5,3.4 2.3,1.3 0.6,1.6 -1.2,1.7 1.4,1.5 1.8,2.7 2.3,2 h 1.3 l 2.9,2.6 2.5,1.5 1.3,1.6 h 1.3 l 2.9,2.2 0.6,0.7 -0.2,2.8 -1.3,0.9 -2.3,-0.9 -0.7,2.9 -1,1 -2.9,0.8 -3.1,1.8 -0.6,1.3 2.5,2.8 0.1,1.3 -0.6,1.3 1.7,0.3 0.3,1.9 -0.3,1.5 -1.7,-0.4 -1.2,-0.9 -0.2,-1.1 -1.1,-0.5 -2.5,0.5 -1.5,-0.8 -2,-0.3 -0.1,1.4 -5.7,0.5 -3.9,1.5 -1.1,0.9 -3.8,0.5 -1.4,-1.9 -2.7,-0.4 -2.8,0.1 -0.2,1.9 -1,1.6 -1.6,0.5 0.1,-1.3 -1.2,-0.3 -0.9,-1.4 -3.5,-1.6 -0.7,0.5 -2.2,-1.2 -5.1,-2.3 1,1.6 -3.7,0.2 -1.1,-0.9 -0.8,0.2 -1.4,-1 h -1.3 l -1.3,1.2 0.2,1.5 -2.6,-0.2 -3.3,0.6 -2.8,-0.1 -1,-0.3 -1.1,-1.3 v -1.5 l 0.6,-2 -0.2,-2.4 0.3,-1.5 1,-1.8 1.4,-5.5 3.5,-3.8 -0.1,-1.3 -1.6,-0.6 -4.8,-0.8 -2,-1.4 -3,0.6 -2.1,-0.1 -0.3,-0.9 -1.4,-0.4 -1.8,0.7 -3.5,-4.3 -1.4,-0.1 0.6,-3 0.9,-0.9 v -1.4 l -2.8,-1.1 -1.5,-1.6 -0.3,-2.2 0.6,-1.7 2.3,-1.3 -0.4,-2 -1.7,-0.7 0.4,-1.5 -3,-2.3 0.6,-2.4 -1.9,-1.2 0.5,-0.8 2.2,-1.6 -0.7,-1.2 1.3,-2.8 v -1.2 l -3.1,-4.1 0.7,-1.1 1.8,-0.7 2.3,0.8 4.5,-1.3 0.7,-1 -1,-0.9 0.3,-0.9 2.6,-1.6 0.6,-2.6 -0.8,-1 -2.6,-0.3 -0.7,-1 0.6,-1.6 3.1,0.1 1.1,-3.8 0.7,-1.7 -0.1,-4.3 -1.7,-1.4 0.5,-2.7 1.1,-1.4 0.9,-0.4 4,-0.3 4.5,0.1 1.9,2.2 -0.6,1.2 1.6,0.3 0.9,-2.4 1.4,0.8 1.1,-0.1 -0.5,-1.7 0.2,-1.6 0.9,-1.4 3.3,0.6 3.6,-0.3 0.1,-0.6 -2.8,-0.5 -0.9,-1.1 -0.2,-3.9 -1.5,-0.8 -1.6,0.3 v -1.5 l 3.4,-1.1 v -1 l -3.4,-3.8 -0.2,-1.6 2.7,0.1 5.2,1.3 3.1,-0.7 z"
     id="DE"
     name="Germany" />
  <path
     class="state"
     d="m 388.04997,339.25 2.1,1 2.4,0.3 0.4,1.9 -3.5,0.7 -5.1,-2.1 0.1,-2.5 2.3,-0.2 z m 13.7,-1.1 -2.3,0.1 -1.9,1 -0.3,-1.2 1.6,-1 1.2,0.2 z m -28.8,1.2 -1.2,0.2 -1.7,-0.5 -0.6,-2.3 2.7,1.1 z m 8,2 -1.4,-1.5 2.5,-2.9 0.7,-0.2 z m 50.1,-4 -2.4,-0.2 -2.4,-1 0.1,-2 0.5,-0.9 4.5,2.3 z m -52.1,-8.7 2.3,4.3 -0.1,2.8 -1.8,1.2 h -2.1 l -5.4,-1.7 -1.7,-2.9 -0.1,-2.3 4.8,-1.4 2.6,0.8 z m 23.3,0.2 -1,0.6 -0.7,-0.9 0.9,-0.9 z m -23.9,-2.8 h -0.9 v -3 l 1.5,1.6 z m 22.6,0 0.1,1.5 -0.7,0.7 -2,0.7 -1.1,1.8 2,1.2 0.5,1.5 -1,0.7 -2.6,0.7 v 5.6 l -2.2,0.6 -1.5,-2.1 -0.1,-0.9 -1.3,-3.1 -2,-0.4 -2.2,0.1 -1.5,-1.8 0.1,-2.1 -1,-2 -1.3,-0.6 0.4,-1.4 3.1,-0.2 1.5,-1.9 v -0.9 l 1.8,-0.2 0.8,0.7 0.1,2.6 1.6,0.5 1.1,-2.9 -0.9,-1.1 3.9,-2.2 1.1,-0.1 3,0.9 -0.4,2.1 z m -31.6,14.2 -1.5,-0.4 -3.1,0.7 -5.2,-1.3 -2.7,-0.1 -0.5,-2.1 -0.8,-1.4 1.1,-0.3 -0.9,-3.9 -3.2,-1.3 -2.5,-1.4 0.5,-5.6 -1,-2.3 0.1,-6.9 1.3,-0.1 3.1,0.8 1.5,0.9 0.6,-1.9 1.6,-1.6 2,-0.8 1.6,1.3 0.3,-4.5 -1.6,-0.5 -1.3,0.4 -1.3,1.9 -1,2.4 -1.9,0.2 -1.5,0.7 -2.4,-1.4 0.1,-1.4 1.6,-1.9 2,-1.9 h 2.2 l 1.6,-0.6 3.9,0.1 2.8,-1.3 2.8,-3.6 1.5,-1.5 3.3,-0.5 3,-1.7 -0.8,2.5 1.2,1.7 v 3 l -0.9,1 -1.4,2.5 0.2,5.6 2.5,1.5 h 4.1 l 1,1.1 -0.7,2.2 -2.6,1.4 h -0.9 l -1.4,-1.1 -1.1,0.9 -1.2,5.1 -2,-0.1 -1.2,0.5 1.4,1.2 -1.3,0.8 -3.4,3.1 1.1,3.4 -0.2,0.9 -1.5,1.3 -0.6,1.1 2.3,0.3 z"
     id="DK"
     name="Denmark" />
  <path
     class="state"
     d="m 510.04997,284.55 3.9,0.2 4,1.8 -1.8,0.7 -3.7,2.5 -0.3,0.5 -2.6,-0.1 -1.4,0.2 -1,0.9 -0.9,2.8 -1.6,0.5 -0.3,-0.9 1.6,-1.8 -1.5,-1.4 -1.9,-0.7 0.9,-1.8 -1.6,-1.6 1.5,-0.2 1,0.5 2,-0.5 0.5,-1 z m 8.3,1 -0.9,0.2 -2.4,-1.1 1,-1 1.9,0.5 z m -5.4,-4 -0.8,0.7 -0.9,-0.6 -0.9,1.6 -1.3,0.3 -1.9,-2.5 -2.9,-0.5 -1.3,-0.7 4.5,-0.4 1.2,-1.6 1.3,0.1 0.4,0.9 2.1,0.3 0.9,1 z m 53.2,18.9 -1.9,-0.2 -3.4,-1 -4,1.2 -2.8,-1.1 -3.5,-2.7 -0.6,-0.7 -2.3,-0.5 -5.6,-2.5 -1.1,0.7 -1.5,-1 -8.4,2.8 1,-3.4 0.1,-3.6 -2.3,-0.4 -0.9,1.3 -1.3,0.3 -4.1,-1.3 -1.2,-2.1 -1.6,-1.1 -0.8,-1.2 v -1.8 l -1.5,-2 0.7,-1.1 -0.7,-2.8 3,-1.2 3.3,-0.2 0.9,-1.3 2,-1.3 2.3,0.2 3.1,-1 6.3,0.1 0.4,-1.7 h 3.2 l 7.6,1.2 h 1.8 l 2.8,1.2 1.4,0.3 h 4 l 6.3,0.5 1.2,-1 1.5,1.2 -1,1.4 -1.2,0.4 -0.9,3.2 -0.8,1 -1.7,-0.3 -2.5,0.2 -2,0.5 -1.3,1.1 0.1,1.1 2.6,2.3 1.4,2.8 2.6,2.2 0.8,1.3 2.4,2.9 1.8,2.5 -2.3,0.6 -1.2,2 z"
     id="EE"
     name="Estonia" />
  <path
     class="state"
     d="m 501.04997,259.25 2,0.2 -0.6,2.8 -2.3,-1.8 z m -1.9,0.5 -2.1,-0.6 0.9,-0.8 z m -6.5,-2.7 -1.5,0.7 -0.3,-1.7 z m 25.5,-62.9 -1.5,0.5 -1.3,-0.3 -0.2,-0.9 2,-0.6 z m 30.1,-54.6 -3.7,1.3 1.6,0.8 0.8,1.2 -2,3.2 0.1,0.6 3.1,4 7.2,1.7 2.3,1.8 3.6,2.3 1.8,0.9 0.1,1.9 -3,3 -2.6,3.1 -1.2,1.7 0.4,1.7 2.6,2.1 2.3,2.2 3,3.5 3,2.5 3,4.2 0.4,1.4 -3.7,0.7 1.2,0.9 -0.6,1.3 0.3,1.9 -0.5,1.5 1.9,0.3 0.3,1.3 -1.7,1 v 0.9 l 1.4,1.7 1,0.6 3.2,0.6 0.9,1.6 -1,1.7 1.8,2.2 4.5,1.8 0.7,1.3 0.2,1.7 -2.4,3 -2,0.8 0.7,0.8 4.5,2.6 6.6,2.9 2.6,1.3 2.1,1.9 2.2,1.6 0.5,1 -1.6,4.5 -0.7,1.2 -2.2,2.2 -3.4,2.8 -2.3,2.3 -5.3,5.9 -1.9,1.5 -2.1,2.2 -4.9,3.3 -0.7,0.8 -2.5,1.5 -5.6,5.2 -3.5,1 -2.6,-1.1 -1.8,0.2 -1.2,0.8 -2.5,0.2 -2,0.6 -1,-0.7 -0.7,0.6 -1.9,0.2 -2,-1 0.3,1.5 -3.3,1.5 -0.8,-0.9 -2,1 -2.1,0.2 -1.1,0.8 -5.9,1.1 -1.5,1.3 -1.2,-0.3 -6.7,1.1 -2.9,-0.2 -2.7,2 -1.8,0.4 1.5,-3 -2.4,-1.1 -1.2,-1.6 -0.7,0.4 -0.3,1.5 -1.5,0.8 -2,-0.1 -0.4,-2.4 0.8,-2.3 -3.6,-0.6 -3.8,-1.4 -0.9,-0.1 -0.7,-1.3 -2,0.9 -2.1,-0.9 -1.7,-5.3 v -1.3 l 0.9,-1.6 -0.1,-3.4 -0.6,-2 1.1,-0.6 -0.9,-1.6 -2.2,-3 -1.6,-1.1 0.5,-3.3 -0.6,-1.6 -1.9,-1.1 -1.1,-2.9 0.6,-2.4 2.4,-2.2 v -1.2 l 0.9,-1.1 -0.5,-1.3 2.7,-0.5 1,0.4 2.4,-0.4 1.9,-1 -1.1,-1.8 1.5,-0.7 1.2,-1.2 -0.1,-1 2.3,-0.5 2.4,-1.9 2.3,-1.1 2.3,-1.9 1.1,-0.1 0.3,-1.3 2.5,-1.9 0.8,-1.6 2.3,-1.8 2.2,-3.9 3.8,-1.2 3.8,0.3 -0.6,-1.7 1,-0.3 -0.6,-1.3 -1,-0.6 v -4.6 l -1.3,-0.9 -4.5,-1.6 -1.7,-0.1 -1.2,-1.2 -4.6,-0.7 -1.6,-2.5 -1.9,-2.2 -1.8,-0.6 -1.3,-2.6 v -1.3 l 1.5,-1.3 -0.1,-1.8 0.7,-1.4 -0.6,-0.9 -3.3,-2.6 -0.8,-1.6 0.1,-1.1 1,-0.8 -0.6,-1.3 -2.8,-0.4 0.3,-1.9 -0.7,-1.4 -0.4,-2.4 1.1,-1 -1.8,-0.9 -1.9,-1.5 -1.4,-0.1 -1.2,-1.6 -3.5,-1.8 -8.3,-1.7 -4.2,-1.8 -4.8,-2.3 -2.9,-1.1 -0.4,-0.9 -2.9,-0.8 0.5,-0.4 h 2.1 l 1.9,0.4 0.5,-0.6 -1,-1.4 1.9,-1.1 h 3.6 l 7.9,5.5 1.4,1.8 6.9,0.6 0.8,0.5 1.8,-0.1 3.7,-0.9 1.2,-1.2 1.5,0.1 3.6,1.1 3.9,0.8 2.6,0.8 1.3,-0.6 0.5,-1.7 1.6,-1.3 2.1,-0.3 1.5,-1.4 -0.7,-3.2 0.6,-1.7 0.7,-3.8 2.6,-1.7 1.7,-1.8 2.1,-0.2 3.8,0.4 0.9,-0.2 3.5,-1.6 2.9,-0.3 1.8,1.2 4.2,2 4.2,1.1 3.6,0.8 2.6,2.7 -0.7,1 -3.2,2.9 v 0.7 z"
     id="FI"
     name="Finland" />
  <path
     class="state"
     d="m 243.64997,402.35 -1.6,1.3 -1.3,0.2 -2.5,-1.2 v -0.5 l 2.5,-1.1 2,0.6 z m -36.5,-39.7 1.3,0.9 -3.4,1.9 -1.2,-0.6 -0.9,-1.2 -0.1,-1.9 1.2,-0.5 h 1.8 z m -23.3,-11.4 -2.1,0.4 h -2.9 l 0.1,-1.5 -1.4,-0.5 -1.8,-2.7 -1.3,-0.5 -1.9,1.6 0.5,0.9 -2.4,1.8 -2.9,-0.3 -0.8,-0.7 -2.1,-0.4 -0.2,-1 -2.7,-2 1,-1.4 2.9,-0.9 -1,-1.4 0.2,-0.8 1.6,0.1 2.2,-0.8 1.2,-1.6 1,-2.3 1.9,-0.9 1.3,0.6 1.9,-2 2.8,-0.1 2.7,-0.7 3.9,0.3 1.1,1.1 0.5,1.7 1.3,1.7 1.7,1.4 v 0.9 l -2,1.1 3.5,0.3 1.2,2.5 -2.1,0.3 -0.1,1.4 1.1,0.2 -0.6,1.4 -2.6,0.6 -1.4,2.2 -1,0.5 z m 13.7,-20.2 -2.6,-0.5 -0.6,-2 0.9,-1.4 1.8,0.7 0.6,1.3 z m -11.5,-7.1 0.7,3.4 -2.4,1.3 -0.8,-2.4 -1.4,1 0.2,-1.9 1.5,-0.3 z m 1.7,1.7 -1.1,-1.2 1.6,-2.2 1.7,-1 -0.1,1.6 z m 2.5,-7.8 -4.6,0.8 0.6,-3 -1.9,-0.9 0.3,-0.9 2.1,-0.5 1.7,1.7 2.1,0.6 z m -16.2,-11.4 -1.5,-0.2 -0.4,-1.4 0.2,-2.3 1.6,0.2 z m 12.8,-5.7 -0.1,2.8 2.9,0.8 2,-0.1 0.4,0.6 -3.3,2.7 -0.7,-0.1 -0.2,-2.2 -1.4,0.3 -1.9,-0.3 -1.2,-1.9 -2.7,-0.5 -0.9,-1.1 1.4,-0.6 0.3,-1.2 2.8,-0.6 1.5,-0.7 0.9,1 z m -11.9,-2.6 1.2,0.9 -1.1,1.3 h -1.5 l -2.2,-1 0.2,-0.5 z m 11.8,-9.9 -1.6,2.6 -1,0.7 -0.2,1.7 -3,1.6 -3.2,2.4 -1.4,-1 2.6,-1.7 -2.1,-1 -0.2,-2.6 0.8,-0.7 1.4,0.7 1.9,-0.3 -0.7,-1.2 6.3,-3.2 z m 34.8,-2.2 v 1.2 l -1.3,1.6 -2.2,1.2 -4.2,2.8 -2.5,1.3 -0.5,1.6 1.4,0.1 0.2,0.8 -2.2,1.6 -0.6,1.5 3,-0.4 5.3,-1.5 3.6,0.5 2.6,-0.3 6.9,0.2 1.9,-0.3 2.3,1.3 1,1.7 -2.8,3.4 -0.8,2.3 -2,3.5 -1.9,2 -2,2.5 -2.1,1.1 -3.1,0.5 4.5,1.9 -1.4,1.8 -2.4,0.1 -2.3,1.7 -2.1,0.7 3.6,1.1 2.4,-1 2.7,-0.1 5.2,1.9 3.6,3.4 2,1.5 0.5,1.1 2.1,6.9 1.5,3.8 1.6,1.8 4.5,1.6 1.1,0.6 3.4,3.3 3.4,2.4 -1.4,1.5 0.4,1.2 2.1,2.9 0.3,1.6 -1.3,-0.1 -2.3,-1.4 -0.3,0.7 5,3.3 1.6,2 1,2.7 -0.6,1.1 -3,2.7 2.8,1.4 1.2,-0.2 2,-2.1 1.7,-0.2 4.2,0.3 3.8,1 3.3,2.1 0.7,1.1 0.4,3.1 -2.2,5.8 -2.8,1.9 -0.5,1.7 -2.1,0.9 -1.7,-0.3 -2.4,1.2 1.7,0.6 v 1.7 l -1.1,0.6 -2.5,0.2 1.1,2 2.5,0.4 4.3,-0.2 1.9,0.2 -0.2,2.7 -0.4,0.4 -3.8,1.7 -1,1.8 -2.2,-0.1 -1.1,0.7 -5.7,1.9 -4.9,-0.8 -2.9,0.1 -4,0.6 -4.2,-1.2 -1.8,-0.2 -2.8,1.7 -4.2,0.5 -2,-0.2 0.9,1.5 -0.9,0.4 -3.8,-0.5 -1,0.5 -1.4,-0.2 -2.7,-1.4 -2.6,-0.1 -4.9,1.2 -1,1.3 -1.3,3.5 -1.1,1.2 -1.4,0.2 -4.5,-2.5 -1.5,0.5 -2.5,0.3 -2.7,0.7 -3.9,2.4 -0.9,1.5 -1.3,0.2 -1.1,-0.9 -1.4,-0.3 -2.3,0.8 -0.3,-1.3 1,-1 2.8,-0.7 2.5,-1.9 2.2,-2.3 4.6,-3.8 0.8,-3.1 2.7,-0.7 1.4,-2.5 4.1,-0.6 h 2.8 l 2.8,0.5 2.9,-0.1 1.1,-0.7 1.9,-2.4 3.6,-3 -4.7,1 -3.8,2.3 -3.2,-0.4 -2.3,-1.9 -2.1,-0.8 -2.1,0.4 -0.7,-0.9 -2.4,-1.7 h -2.6 l -3.6,1.7 -2.6,-1.2 -0.9,-2.3 0.3,-1.4 1.1,-0.7 2.5,-0.6 3.8,-1.7 2.2,-0.7 2.8,-1.9 1.2,-2.3 -0.3,-2 0.5,-1.4 -0.9,-1.7 0.3,-1.5 -3,0.3 -2.7,1.2 -0.7,-1.1 2.8,-1.8 1,-1.4 2.6,-1.7 3.6,-1.3 1.9,0.1 3.7,-0.7 2.7,1.3 -0.8,-2.1 1.2,-0.4 0.1,-2.4 1.6,-2.2 -1.2,-0.6 0.1,-2 1.5,-0.8 0.7,-2.6 -1.7,-0.5 -2.1,0.6 -1.7,-1.5 -2.8,-3.6 -0.3,-1.4 1.6,-3.1 2.3,-2 -1.9,-0.8 -1.4,0.2 -2.7,1.2 -2,1.3 h -2.1 l -0.8,-0.9 -1.1,0.1 -2.5,1.1 -3.5,-1.3 -1.1,2.3 -2.6,-2.5 -0.3,-1.9 h 1.3 l 1.2,-2.4 2.9,-4 0.6,-1.2 -0.5,-1.4 -1.9,-1.5 0.3,-2.6 0.8,-1 1.5,-0.4 -1.9,-1.2 -2.9,0.9 -1.8,0.9 0.3,-2 -0.6,-0.4 -1.5,1.4 0.1,3.3 -2.1,5.7 -1.1,0.9 -1.4,-0.5 1.1,-3.9 1.4,-2.5 -0.6,-0.3 0.3,-3.6 1,-2.9 1.7,-3.8 2.2,-3.5 -4.1,2.7 -1,0.5 -2.4,-0.4 -0.8,-0.7 -1,-2.3 1.8,-0.2 1.7,-1.1 -1.5,-0.7 1.5,-0.9 1.7,-2.1 0.4,-1.9 -1,-1.5 -1.6,-0.6 -0.2,-0.9 1.7,-1.9 -0.7,-1.5 1.6,-3.1 3,0.1 1.9,-0.4 -2.3,-2 0.7,-2.9 3.7,-0.3 -0.8,-1.8 0.3,-2 1.6,-0.9 1.3,0.2 1,0.9 2.6,-0.9 0.6,0.8 2.8,-0.6 3.7,-0.3 4.5,-0.6 2.2,-0.4 2.3,0.2 z m -0.6,-4 -1.3,0.1 -1.3,-1.4 1.5,-0.3 z m 1.3,-3.4 2.7,0.6 -0.6,1.4 -1.4,-0.7 -2,0.3 -1.9,-1 0.4,-2.1 1.7,-0.1 1.2,0.5 z m 3.7,-2.3 -1,0.3 -0.4,-1.2 -1.7,-0.6 0.4,-0.8 z m 16.1,-19.5 1.6,1.8 1,0.5 -1.3,3.8 -0.2,1.6 -1,1.7 -0.8,-0.4 0.9,-2.9 -0.5,-1.1 -1.7,0.3 -0.4,-0.9 1.6,-1.4 -0.8,-2 -1.1,-0.2 1.5,-1.6 z m 2.9,0.4 -1.4,-1.3 1.3,-0.6 z"
     id="GB"
     name="United Kingdom" />
  <path
     class="state"
     d="m 827.44997,546.95 -2.3,0.5 0.5,0.7 -3.5,0.1 -1.1,0.2 -3.2,-0.3 -5.3,1.3 -4.4,0.3 -1.3,-1.2 -1.9,-0.2 -1.1,-1.7 -3.5,-2.5 -1.2,-0.4 -0.6,-1.1 -1.4,-0.3 -1.4,0.4 -0.9,1.9 -3.4,-0.8 -3.6,-0.1 -1.1,1 -4.3,-1.3 1.9,-3 0.4,-1.7 -0.4,-2.4 -1.7,-2.7 -3.7,-8 -1.1,-1.2 -4,-1.4 -1.1,-1.6 -3.2,-2.1 -4.1,-0.9 -4.8,-2.9 -2.9,-1.7 0.9,-2.1 0.8,-0.2 4.8,0.9 1.5,-0.4 5.9,2.5 3.6,0.7 3.1,1.7 6,0.5 2.8,-0.6 h 1.8 l 2,1.1 2.4,-0.2 3.2,1.2 1.5,1.6 3.5,1.4 2.8,0.8 3.2,1.5 0.2,2.4 2.5,0.4 4.3,-2.1 2.1,-0.7 1.8,0.2 1.9,1.9 0.8,-2.2 4.6,1.7 2.1,1.8 2.8,-0.1 2.2,1 -0.2,4.2 2.9,1.4 1.6,1.2 3.4,0.7 3.1,1.5 -1.2,2.1 -1.2,0.3 v 1.3 l 1.1,0.8 0.9,1.5 4.5,2.6 0.9,0.8 -0.2,2 -1.8,1.4 -4.1,-2 -1.7,0.5 -3.2,-0.9 -1.4,-1 0.1,-0.7 -4,-1.4 -1.9,-0.4 z"
     id="GE"
     name="Georgia" />
  <path
     class="state"
     d="m 567.44997,636.95 h 2.3 l 1.7,-1 2.2,3.7 1.7,-0.1 3.5,-0.9 3.7,0.2 1.4,1 2.6,0.2 2.3,0.5 3.3,-0.7 0.4,0.4 0.1,2.8 1.2,0.2 0.7,-0.7 1.7,-0.6 h 1.8 l 1.6,-0.8 -0.4,3.5 -0.9,0.4 -4.4,-0.1 -8.1,1 -5.3,0.4 -0.7,-0.2 -0.7,-2.2 -3.3,-1.1 -6.2,-1 -1.5,-0.4 -3.1,0.2 -1.1,-1 -0.4,-1.8 0.2,-1.9 1.4,0.3 0.4,-1.4 z m 43.4,1.1 -1.6,-2.1 1.1,-0.5 1.2,2.4 z m -54.7,-11.4 -1.4,0.2 -0.7,-2.2 0.5,-1 2.1,2.1 z m 62.7,4.1 -1.7,-0.4 0.4,-1.8 -0.7,-1.6 2.3,-2.7 3.2,-1.3 0.9,0.9 -0.9,2.5 -0.9,1.3 0.4,1 -1.6,0.2 z m -19,-10.3 -1.5,1.2 -0.9,-0.6 1.9,-1.2 z m 6.2,-2.2 v -0.7 l 1.3,-1.1 2.5,-1 1.2,0.6 -2.5,1.4 -1.5,0.1 z m -22.2,-5.4 -0.9,1.3 -1.3,-0.7 0.4,-1.2 1.1,-0.6 z m 3.6,1.6 -1.1,0.6 -1.4,-2.2 1.9,-2 0.9,0.7 0.1,1.8 z m 5.4,-8.8 0.6,-1.6 1.6,-0.1 v 1.1 z m -21.7,-0.7 -1,-0.4 0.4,-1.2 1.1,0.5 z m 31.6,-3.7 2.8,0.7 -0.7,1 -1.6,0.9 -1.7,-0.9 -1.2,-1.2 z m -76.7,0.1 0.4,1.2 -1.1,1 -1.6,-1.2 -1.2,-1.8 0.9,-1.1 0.9,1.2 z m 53.1,0.7 -1.4,-0.1 -2.4,-2.1 0.9,-1.4 0.9,1.2 1.3,0.1 z m -57.3,-9.7 0.3,1.8 0.9,0.3 1.3,1.6 -0.2,1.2 -2.1,-0.8 -1,0.2 -1.1,-2 -1.3,0.2 0.6,-1.8 1.4,0.1 z m 70.8,2.5 -1.1,0.9 -1.8,-1.7 1.4,-1.3 -2.1,-2.4 -0.1,-1 2.1,-0.5 1.3,0.9 0.6,1.2 0.4,2.6 z m -70.2,-6.1 -1.3,0.1 -0.4,-0.9 0.8,-2.4 1.1,0.3 0.2,2.5 z m 34.6,-5.4 0.9,1.7 5.5,2.5 2.8,0.3 1.7,2.6 -0.2,0.6 1.5,3.8 1.1,0.9 2.7,0.3 0.4,1.9 -0.9,0.8 -1.9,-0.7 -2.1,-1.6 -0.4,-1.3 -2.2,-2.9 -3.6,-0.2 -1.5,-0.7 -0.6,-1.7 -1.5,-0.9 -2,-1.9 -1.5,-1.1 -3,-1.1 -0.6,-0.7 1.9,-1.3 2.1,-0.5 z m 37.9,-5.8 -0.1,0.9 1.9,1.5 0.7,1 -1.2,2.1 -4,-0.8 -0.8,-0.8 1.6,-1.3 -0.9,-0.5 -1.2,1.5 -2.2,-0.7 -0.9,-0.9 0.7,-1.4 1.5,0.1 1.7,-0.8 v -0.6 l 2.3,-0.2 z m -81.3,-1.6 -1.3,0.3 -1.2,-0.8 -1.2,-1.9 -2.2,-2.2 0.7,-1.1 1.6,-0.4 1.4,1.2 -1.1,1.2 0.8,0.7 0.9,2.4 z m 67.8,-8.6 -0.7,1.4 -0.1,1.3 -3.8,-0.7 -0.3,-2.3 2.2,-0.1 0.8,0.8 1,-0.9 z m 2.4,-6.9 -1.4,0.4 -1.7,-1.3 1.4,-0.5 z m -11.9,-3 -1.6,0.6 -1.8,-1.1 1.1,-2.3 1.3,0.1 1,1.3 z m 15.9,-1.7 -0.5,-0.7 -2.1,-1.2 -4.6,-0.6 -2.3,-0.9 -0.9,0.2 -2,-1 -1.2,0.4 -2.5,1.7 -1.5,-0.2 -1.6,-1 -2.2,0.4 -1.7,1.9 -1.8,1 -1.8,-0.4 h -2.3 l -0.2,1.1 2,2.1 -0.5,1 0.5,1 2.1,0.1 2.5,1.3 -0.7,0.7 -3.2,-1.2 -1.2,-0.1 -1.2,1.2 3.5,2.7 0.5,1.4 -0.6,0.9 -1.5,-0.8 -2.5,-3.2 -3.1,-0.6 -0.4,0.6 1.2,2.4 2.9,1.7 -0.6,0.6 -3,-1 -1.1,-1.6 -0.4,-2 -5.5,-2.8 -1.4,-2.8 -2.2,1.3 0.4,2 -0.6,3.8 0.4,1.3 3.5,3.7 1.3,2.7 2.6,2.1 2.6,3.2 0.7,1.8 -1.3,1.1 -1.3,-0.5 0.3,-1.9 -2.2,-1.2 -1.9,1.2 1.5,2.3 0.5,1.2 -0.4,1.3 -1.6,0.8 -2.6,0.1 2.4,1.4 3.3,1 1.6,1.1 1.5,0.1 1.7,2.1 2.6,0.6 1.7,2.1 2,0.5 1.7,0.8 1,2.1 0.3,2.9 0.6,2.1 0.1,1.7 -1.1,0.5 -1.3,-1.6 -4.2,-3.6 -1,-0.4 -1,0.7 -2.9,0.5 -1.9,1.3 1.5,1.3 0.1,1.2 0.8,1.5 2,0.4 2,2.4 -3,1 -1.1,0.7 -0.8,-0.5 -0.2,-1.2 -4.3,-2.2 -0.6,0.6 0.7,2.4 1.3,1.6 2.2,4.3 1.3,3.7 -0.2,2.1 1,1.5 0.1,1.5 -1.7,-1.2 -2.2,-2.5 -0.8,-1.5 -2.2,0.1 -1.3,3.3 0.2,1.9 -1.6,-1.1 -0.2,-2.9 -2.1,-2.8 -0.9,-0.4 -1.3,-1.9 -1.5,0.6 -0.1,2.9 -0.4,1 -2.2,-1.9 -2.3,-3.5 -0.2,-1.8 1.4,-1.7 -0.3,-1.2 -1.6,-2.5 -2.1,-1.5 -1.2,-0.5 -0.7,-1.6 -2,-1.3 v -1 l 2,-1.7 1,-2.6 1.9,0.5 1.4,-0.2 2,-2.4 1.6,0.1 3.9,2.1 4.2,1.2 2.1,1 1.2,1.1 1.6,0.3 -0.5,-1.4 0.8,-0.4 h 2.1 l 0.2,-1.6 -2,-0.6 -0.8,0.2 -2.4,-1.4 -2.3,-0.8 -2.2,-1.5 -1.2,1.3 h -1.2 l -3.4,-0.9 -2.1,0.7 -4.2,0.7 -1.1,-1.3 -2.6,1 -1,-0.7 -1.9,-4.2 -1.7,-1.9 -1.2,-0.5 -0.2,-1.9 1.5,-0.2 2.4,0.9 0.9,-0.6 -0.6,-1.6 -2.5,-0.2 -1.8,0.5 -2.8,-2.2 -1.5,-1.7 -2.2,-1.1 -1.7,-3.4 -2.6,-2.6 2.7,0.9 0.7,-0.7 0.3,-1.5 0.9,-0.7 -1,-2.2 1.7,-1.3 1.9,-0.3 0.6,-0.5 0.3,-2 1.2,-3.1 1.7,-0.8 0.8,-2.6 -1.1,-1.8 v -1.1 l 4.6,-0.3 0.9,-0.6 2.3,0.6 2.4,-1.3 1.7,-2.5 0.8,-0.3 3,-0.4 3.3,0.6 2.9,-1 0.2,-2.1 2,-0.3 3,0.2 1,-1 2.4,-0.2 2.6,0.2 3,-1.1 1.9,-0.2 0.2,-0.9 4.2,0.1 1.6,-0.5 1.2,1.7 2.4,1.4 0.9,-0.6 3.7,1.2 1.7,1.1 3.4,-0.9 3.2,-0.4 1.8,0.3 2.5,-1.2 0.2,-0.8 -0.9,-2.7 -0.7,-1 1.6,-1.1 1.6,0.5 1.2,0.3 2.3,1.5 0.9,3.1 -3.4,2.5 0.5,4.4 -2.5,3.2 z"
     id="GR"
     name="Greece" />
  <path
     class="state"
     d="m 465.74997,520.45 2.3,0.4 -1.1,0.9 z m 12.9,1.5 1.6,-0.1 0.6,0.9 6.2,3.8 1.7,0.7 1.2,1.9 -4.8,-3.1 -4.4,-2.5 -3.1,-0.7 -4.3,-2 -0.5,-0.9 z m -6.3,-3.5 -0.8,0.1 -5.6,-0.1 -1.7,-0.3 -0.5,-1.3 1.8,0.2 0.5,0.6 z m -5.3,-2.3 -2,0.1 -2.6,-0.8 0.3,-1.1 4.8,0.6 z m -21.2,-16.5 -0.3,0.4 -3.3,-2.7 -0.3,-1.9 2.8,2.7 z m -4.9,-6.5 -1.9,-0.2 0.8,-1.1 z m -4.2,1.5 -0.9,-0.1 -1.7,-4.2 0.4,-1.2 -0.8,-2 0.9,-0.3 0.5,2.1 1,0.9 -0.1,1.6 z m 3.7,-4.9 -1.5,0.3 -1,-1 -1.3,-0.2 -1,-1 1,-0.7 0.5,-1.2 z m 49.5,-14.7 -0.7,1.5 1.6,2.7 0.2,1.6 1.3,0.4 -0.4,2 1.2,1 3,1 0.9,1.5 -2.3,0.1 -1.7,0.4 0.7,2.6 -1,1.6 -2.2,-0.2 -1.3,-2.2 -1.1,-0.8 -2.2,-0.2 -2.6,-0.7 -1.8,0.2 -1.8,-0.3 -2.2,1 -1.6,-1.3 -1.7,0.6 -2.8,-0.7 -2.5,-0.1 -2.7,-1.6 -1.5,1.2 -3.2,-0.3 -2.7,3.2 -1.8,-1 -1.7,-1.8 -1.8,-0.4 -1.2,0.6 -0.3,5 0.1,1.4 1.9,1.3 3.4,3.2 1.3,4 2.3,2.4 2.8,2.3 1.7,2 5,4.1 2.4,1.1 0.4,2.2 1.5,1.6 3,2.5 -0.3,1.6 -3.5,-2.8 -2.6,-1.5 -3.1,-2.8 -3.8,-1.1 -2.7,-1.2 -3.3,0.6 -1.8,-0.2 -0.7,-2.2 -5.8,-3.9 -4.3,-4 -0.8,-1.3 3.1,-1.2 -1.4,-0.8 -3.9,-3.4 -1.2,-1.6 -0.1,-4.1 -0.8,-1.7 -2.9,-2.2 -1.1,-1.1 -2.1,-0.7 -1.4,0.9 -0.3,1.9 -3,5 h -1.3 l -3.1,-4.2 -0.5,-1.9 -1.3,-3.9 0.7,-0.5 0.5,0.6 3.3,0.8 1.4,-1.3 1.1,0.5 3.6,-0.1 0.6,-0.3 1.2,-2.2 2.6,2.1 1.5,0.7 1.3,-0.5 2,0.7 1.6,0.2 1.2,-0.4 -0.8,-2.3 0.7,-0.7 -1,-1.1 2.1,-1 2.1,-0.6 0.4,-1.1 -0.2,-2.2 -0.9,-0.9 0.4,-1.4 4.4,-1.7 0.7,-1 h 2 v -1.7 l 0.9,-0.8 2.5,0.6 2.9,1.2 1.7,1.2 0.9,1.3 2.7,1.8 2.2,2.2 1.3,0.7 2.5,0.6 1.3,1.3 3.3,0.9 4.9,0.2 2.5,-0.9 1.1,-1.4 z"
     id="HR"
     name="Croatia" />
  <path
     class="state"
     d="m 525.54997,437.05 h 1.5 l 1.4,2.3 2.2,0.8 0.9,1.1 2.3,0.4 0.9,0.7 0.7,1.7 -2.2,2.3 -4.6,1.1 -1.9,2.4 -1.2,1 0.1,1.7 -1.4,1.4 -0.7,2.5 -1.4,1.5 v 1.2 l -1.6,2.7 0.2,1.3 -2.1,1.5 -1.5,4.7 -1.3,0.9 -2.6,-0.3 -2.5,2 -1.4,-0.5 -3.2,0.9 -1,-0.5 -2.8,-0.3 -1.1,0.2 -2.9,-0.4 -1,0.3 -1.5,1.6 -2.2,1 -1.6,-0.5 -2.1,1.3 -2.9,0.4 -1.1,1.4 -2.5,0.9 -4.9,-0.2 -3.3,-0.9 -1.3,-1.3 -2.5,-0.6 -1.3,-0.7 -2.2,-2.2 -2.7,-1.8 -0.9,-1.3 -1.7,-1.2 -2.9,-1.2 -1.9,-2.2 -1.4,-3.3 -2.4,-0.1 1.8,-1.7 2.5,-0.5 0.3,-1.8 -1.1,-1.6 0.5,-0.7 -0.4,-1.5 2.2,-1.2 0.5,-1.4 -0.5,-1.1 -2.6,-0.7 1.3,-1.4 2.5,0.9 3.9,-0.3 -0.7,-2 0.6,-1.9 0.6,-0.7 2.1,0.3 4.2,2.7 1.6,0.7 4.7,0.1 7,-0.4 0.6,-1 -0.5,-1.3 0.4,-1 1.4,-0.7 4.3,-0.4 2.4,-0.6 1,-1.5 0.7,-0.2 3.5,1.4 5,-2.5 1.6,-3.5 1.8,-0.4 2.7,0.1 2.5,0.6 4.6,-0.7 1.4,0.9 2.2,2.2 0.6,0.2 z"
     id="HU"
     name="Hungary" />
  <path
     class="state"
     d="m 183.84997,351.25 0.7,1.1 -2.2,0.4 1.5,5.2 0.6,0.9 v 4.1 l 0.9,3.2 0.1,2.5 -1.3,1.8 -0.9,2.1 -0.2,1.8 -1.6,2.1 -1.5,0.9 1.6,1.5 -2.8,0.8 -2.6,-0.3 -1.3,0.8 -3.9,0.2 -3.7,0.7 -1.7,1.8 -2.5,0.7 -1,1 -2.3,0.8 -1.7,-1.2 -1,0.2 0.2,2.1 -2.9,1.3 -1.8,0.3 -1,0.7 -5.8,1.4 -1.9,-0.5 -3.3,0.8 -1.2,-0.1 1.6,-1.8 1.6,-1.3 -3.8,0.6 -1.4,0.5 -0.6,-0.6 3.2,-1.9 -3.3,0.1 -3,-0.4 -0.4,-1 2.9,-2.3 2.4,-0.9 -0.1,-0.9 -5.1,0.1 0.5,-1.1 1.7,-1 1.8,-0.1 1.5,0.6 1.1,-0.8 -0.6,-1.7 3.9,-2.3 3,-0.3 3.3,-0.7 3.3,-0.8 -2.4,-1.2 -2.3,1.8 -2.6,0.3 -1.9,-0.5 h -2.1 l 2.7,-2 1.6,-1.7 -0.8,-0.7 2,-2.3 3.6,-1 -1.6,-1.3 -3.9,0.2 -1.4,-1.3 -2.6,0.1 0.4,-1.2 -3.5,-0.2 0.5,-1 -0.6,-1.1 2.8,-0.6 -0.2,-2 1.9,-0.8 2,-0.4 0.1,-1.1 -2,-0.2 -2,0.4 0.8,-2.1 -0.8,-1 -0.4,-1.7 -0.9,-1 2.8,-0.2 1.2,-0.5 4.7,0.1 1.9,1.3 1.7,-1.2 4.8,0.9 0.6,-2.6 3.8,-1.5 1.2,-2 -3.7,0.4 -3.6,-1 0.7,-0.8 2.1,-0.7 1.9,-1.6 -0.3,-1.1 1.7,-2.7 3.1,-0.8 h 2.4 l 1.6,-0.9 1.2,2 -1,1 0.6,0.9 1.2,-0.8 -0.5,-2.1 0.9,-1.3 1.9,-0.3 0.6,-0.8 3.2,1.7 -2.5,1.5 -0.5,0.7 -1.9,0.9 -1,2.3 -1.2,1.6 -2.2,0.8 -1.6,-0.1 -0.2,0.8 1,1.4 -2.9,0.9 -1,1.4 2.7,2 0.2,1 2.1,0.4 0.8,0.7 2.9,0.3 2.4,-1.8 -0.5,-0.9 1.9,-1.6 1.3,0.5 1.8,2.7 1.4,0.5 -0.1,1.5 h 2.9 z"
     id="IE"
     name="Ireland" />
  <path
     class="state"
     d="m 94.849969,177.15 1.2,0.1 2.8,-0.8 2.200001,-1.1 0.5,1.1 -2.500001,2.4 2.200001,0.9 2,0.3 -0.1,1.7 -1.7,1.6 0.8,0.3 3.5,-0.5 1,2.3 1.5,-0.2 2.4,0.3 1.4,1.2 1.2,-0.3 0.5,0.9 -0.7,1.2 -1.5,0.6 2.1,2.9 v 1.1 l -1,0.7 h -1.3 l -1,2.1 -1.2,1.1 -2,1 -2.6,-0.5 -1.1,1.5 0.2,1.4 -1.3,1.3 -5.300001,2.1 h -2.5 l -2.6,0.5 -6.2,2 -4.7,2.8 -2,0.7 -3.1,0.3 -1.8,0.5 -5.9,0.8 -2,0.5 -1.2,1.1 -0.5,1.4 -4,1.1 -3.8,0.7 -6.4,-0.5 -5.4,-1.3 -4.5,-0.3 -3.8,-2.5 -2.9,-1 -3.6,-1.8 -2.3,1.1 -12.4,0.3 -0.8,-0.5 -0.2,-2.1 1.1,-0.8 1.3,1.2 5,-1.1 2.7,-1.9 2.5,-2.7 -3.5,1.2 -0.2,-1.9 -0.9,-1.1 -1.7,-0.8 -0.3,-0.8 1.1,-0.9 -2.3,-1.2 -2.6,0.1 -6.6,-0.5 -3.7999998,1 -2,0.1 -0.9,-1 v -1.1 l 1.5,-0.3 1.8,0.1 4.0999998,-0.6 1.4,-0.6 0.8,0.5 3.6,-1.1 1,0.2 4,-0.2 4.4,-0.1 1.1,-0.8 0.4,-1.1 -2.8,0.9 -3.7,-0.5 -0.6,-0.9 3.6,-1.6 2.7,-0.8 -0.8,-1.3 -3.2,0.2 -0.7,-0.8 -2.6,-0.4 -1.8,0.3 -0.9,-0.5 -2.4,0.6 -5.1999998,0.9 -3.3,0.9 -3.1,-1.1 -2.39999998,-0.2 1.39999998,-1.4 2,-0.1 1.7,0.8 0.1,-3.2 1.2,0.3 2.8,1.1 -0.7,-2.8 2.1999998,0.1 -2.1999998,-1.6 0.5,-1 1.5999998,-0.3 0.8,-1 h 2.4 l 2.3,1.1 0.2,1.4 h 2.1 l 1.1,-0.8 0.9,0.6 0.5,1.2 h 1.2 l 0.4,-2.2 -3.6,-1.1 -0.3,-1.4 3.7,-0.1 -1.7,-1.1 -3,0.2 -1.4,-0.4 2.6,-1.2 h 3.4 l 1.4,0.2 2.3,1.7 2,0.6 3.1,2.3 2.2,0.9 v 1.2 l 0.7,0.8 -2.3,3.4 0.9,0.7 -0.8,1.6 1.9,0.6 1,1.7 0.9,-1.8 1.5,-1.9 2.3,-1.3 0.9,0.1 0.9,1 0.9,0.1 1.4,-2 0.7,-4.3 1.7,-0.9 1.8,0.7 1.3,1.6 2.6,2.1 1.8,-0.5 0.1,-2.3 1,-1.3 2,-0.3 2.2,-0.8 2.3,-0.2 1.7,1.4 1.2,1.4 1.7,1.1 0.7,1.8 0.9,-0.3 -0.2,-1.7 -1.4,-2.6 0.3,-0.9 4.1,0.2 3,2.3 1.3,-0.3 3.6,-2.8 2.3,0.8 1.8,0.1 2.8,-0.8 0.8,-1.2 -0.9,-2.3 0.6,-0.4 2.6,-0.6 2.7,0.1 2.6,2.1 -0.1,1 z"
     id="IS"
     name="Iceland" />
  <path
     class="state"
     d="m 457.14997,594.85 -1.2,2.5 -2.8,4.3 -1.5,5.1 0.3,2 1.6,1.4 -0.7,0.5 1.6,1.8 0.1,1.3 -1.8,1.9 -0.4,1.7 0.1,1.5 -2.9,-0.6 -1.4,0.3 -3.7,-1.4 -1.9,-2.8 -3,-2 h -3 l -1.4,-0.5 -2.9,-1.9 -3,-1.4 -2.6,-2.1 -1.7,-0.4 -1.5,-1 h -2.9 l -2.3,-1.6 -1.3,-2.3 1.3,-3.7 1.4,-0.8 0.9,-1.2 2.3,2.3 1.8,-0.8 1.4,-1.6 2.4,0.1 0.5,0.9 1.4,0.3 2.5,1.6 1.4,0.4 3.4,-1 3,0.4 2.8,-0.5 1.7,-0.6 1.2,-1 1.4,-0.3 3.5,0.3 2,-1.2 0.8,0.2 2,-1.2 z m -78.3,-41.5 0.7,0.9 1.8,5 -0.6,1.6 -1.3,2 0.8,2.8 -0.6,11.5 -0.6,2.9 -0.9,0.4 -2.9,-1.2 -1.5,0.3 -1.2,-0.6 -0.3,3 -1.8,2.1 -3,-0.2 -0.7,-0.6 -2.4,-3.8 -0.4,-4.3 0.6,-1.3 v -2.5 l 1.1,-0.1 v -1.7 l -1.8,-1.2 v -1.9 l 0.7,-1.4 -0.1,-2.6 -0.8,-0.9 -0.8,-2.3 -2.2,-2.4 0.1,-3.4 3.4,0.6 1.3,-0.3 3.1,-1.5 2.1,-2.5 1.4,-0.5 1.5,-1.8 0.7,0.9 2.2,0.8 1.2,1.5 0.9,0.5 -0.7,1.4 z m 8.3,-30.8 0.3,1.4 -2.5,0.5 -1.1,-1.1 2.9,-0.2 z m 37.9,-56.6 -0.2,0.9 -3.3,2.3 0.7,1.4 2.3,0.7 -1.6,2.1 0.3,1 1.3,0.2 -0.4,2 1.9,1.1 1.5,1.3 0.2,1.3 -1.5,0.1 0.7,-0.6 -2,-2.2 -2,0.9 -3.2,-0.9 -2.1,2 -1.5,0.4 -1.7,1.1 -3.2,1.2 -1.8,-0.4 -1,0.7 -0.4,3.1 0.8,0.6 1.5,2.6 1.7,1.1 -0.7,1.9 -0.9,0.7 -1.3,-0.5 -0.3,1.7 0.9,4.5 1.4,3.2 1.2,1.3 2.7,2.2 2.7,1.1 5.1,3.7 2.8,1.1 0.7,0.7 1.8,2.8 1.6,3.2 1.8,5.1 1.3,2.5 2.3,2.9 4.8,4.1 4.3,2.9 4,1.9 3,0.3 7,-0.4 2.6,0.7 0.4,1.2 -0.4,0.9 -2.9,2.1 v 1.7 l 1.5,1.2 7.1,3.2 7.2,2.6 2.2,1.4 2.7,2.1 6.4,2.9 1.1,1.4 4,3 1.8,2.4 0.5,1.8 -1.5,4.4 -1.6,-0.5 -1.9,-1.3 -3.1,-5.4 -5,-0.5 -2.9,-1.3 -0.7,-1.4 -2.3,-0.4 -1.3,0.9 -1.4,2 -1.5,3 -1.5,4.3 v 1.7 l 1.1,1.7 2.9,1 2.4,1.5 1.6,1.6 0.3,3.8 0.9,2.1 -0.9,1.3 -1.9,-0.3 -2.5,0.7 -1.7,1.4 -0.7,1.4 0.5,3.4 -0.3,1.4 -3.3,2.5 -1.6,2.5 -1,2.3 h -4.3 l -1.1,-1.5 -0.1,-2.2 0.6,-1.3 1.6,-0.7 0.9,-2.8 -0.5,-2 1.1,-1.6 2.8,-0.7 v -2.9 l -1.4,-1.3 -1.4,-5.1 -2.4,-4.3 -1.4,-3.8 -1.1,-1.8 -1.4,-1 -3.7,-0.3 -4.6,-2.6 -0.3,-1.1 0.6,-1.1 -1.1,-2.8 -2,-1.7 -2.6,0.6 -1.2,-0.1 -0.1,-1.5 -2,-1.3 -2.7,-0.2 -0.7,-0.7 -2.6,-4 -1.7,-1.7 -2.3,0.1 -3.9,-0.9 -2,0.7 -3.2,-2.6 -2.8,-0.9 -5.7,-5.3 -1.8,-2 -3.5,-2.2 -2.3,-3.2 -1.8,-1.2 -4,-1.4 -0.3,-1.3 -3.1,-3.1 -1.7,-1 -1.3,-2.1 -2.5,-0.5 0.1,-2.7 -1.2,-3.5 -1.7,-2.2 -1.2,-5.3 -0.8,-1.5 -1.8,-1.1 -4,-1.2 -5.7,-3.4 -1.1,-0.1 -3.4,-1.3 -2.1,-0.2 -2.6,1.2 -3.1,3.2 -2.5,3.4 -0.9,0.6 -3.4,1.2 -3,0.5 -0.2,-1.5 2.1,-2.6 -0.3,-2 -3.3,0.6 -5.1,-2.4 -0.9,-0.9 -0.1,-1.4 -0.7,-1.3 1.4,-2.5 0.8,-0.7 -0.5,-1.7 -3.2,-1.4 -1.5,-3.1 0.8,-0.4 1.9,0.2 1.7,-1.3 1.2,-0.3 0.8,-2.5 -1.8,-1.6 -1.7,-2.6 -0.9,-0.6 -0.1,-1.6 2.6,-1.7 1.4,0.7 2.4,-0.5 2.6,-1 3.1,0.8 2.4,-1.4 1.6,-2.2 -0.6,-1.5 3.4,-2.9 1,0.6 0.2,2.5 2.4,2 2.2,0.6 -0.4,1.2 1.3,1.2 0.9,1.4 1.2,-0.7 -0.7,-1.7 0.2,-1 2.2,-2.6 0.5,-1.1 v -2.9 l 2,-0.1 0.8,2.1 2,0.8 2.9,-1.1 0.7,0.1 1.4,1.9 1.2,-0.3 -1.5,-3.5 0.6,-1.8 1.3,-0.3 1,0.9 1.9,0.2 -0.5,-1.8 0.5,-3.1 3,0.3 0.9,0.8 2.1,0.4 1.1,-0.4 1.2,-2.2 1.4,-0.6 3.4,-0.3 3.1,0.2 4.7,-1.5 v 2.3 l 3.1,3.5 1.1,0.5 8.6,1.5 4,0.3 z"
     id="IT"
     name="Italy" />
  <path
     class="state"
     d="m 373.94997,457.75 -1.2,-0.1 -0.1,-1.7 0.5,-1.5 1.1,2.5 z"
     id="LI"
     name="Liechtenstein" />
  <path
     class="state"
     d="m 562.44997,327.75 v 1.8 l -0.7,3.1 3.9,1 -1.3,1 -0.4,1.1 -3.6,-0.1 -1,2 -0.8,0.6 -2.6,0.6 -1.1,3 0.4,2.3 -1,1.5 -0.5,2 1.9,0.5 0.9,1.1 v 1 l -2,0.2 -1.7,-2.3 -1,0.7 -2.1,0.5 -1.4,1.2 -2,-0.2 -0.8,2.6 -1.8,-0.1 -3.3,1.3 -1.6,-0.9 -3.7,0.3 -1.6,0.3 -2.9,-0.4 -0.8,-3 -1.1,-0.9 -4.5,-2.2 -2.3,-0.7 -0.6,0.6 -1.3,-2 v -2.1 l 1,-3.1 -1.3,-1.3 -1.4,-0.6 -0.9,-1.3 -5.7,-0.1 -2.4,-0.6 -3.9,-1.4 -2,-1.2 -1.8,0.2 -0.6,-1.2 0.2,-1.6 -1.1,-2.4 -1.6,-2.9 -0.7,-3.8 2.8,-1.7 3.6,-1.9 4.7,-1.4 5.9,0.5 4.3,-0.1 1,0.9 1.6,-0.7 4.9,0.5 2.3,0.1 3.7,0.9 4.6,-0.4 1.7,-1.3 2.3,-0.2 2.4,2.9 6.1,1 0.9,0.4 5.4,3.1 2.6,2.1 1.5,0.7 z"
     id="LT"
     name="Lithuania" />
  <path
     class="state"
     d="m 329.94997,410.95 0.3,2.2 1.5,1.6 2.8,1.1 v 1.4 l -0.9,0.9 -0.6,3 -1.3,-0.7 -2,0.6 h -1.4 l -2.1,-1.2 1.1,-1.7 -2,-2.4 0.2,-1.7 1.4,-2.5 1.3,-1.3 z"
     id="LU"
     name="Luxembourg" />
  <path
     class="state"
     d="m 566.14997,300.45 1.9,0.3 0.5,1.1 3.2,1.7 0.7,2.2 -0.8,1.6 -0.3,3.1 1.8,-0.3 1,0.6 0.3,1.2 1.7,2.1 1.3,0.8 1.9,4.2 -0.3,1.7 -1.3,0.2 -1.4,0.8 -2.5,2.4 -0.4,1.7 -3.1,-0.1 -3,-0.4 -1.1,0.3 -1.2,1.5 -2.6,0.6 -2.3,-0.5 -1.5,-0.7 -2.6,-2.1 -5.4,-3.1 -0.9,-0.4 -6.1,-1 -2.4,-2.9 -2.3,0.2 -1.7,1.3 -4.6,0.4 -3.7,-0.9 -2.3,-0.1 -4.9,-0.5 -1.6,0.7 -1,-0.9 -4.3,0.1 -5.9,-0.5 -4.7,1.4 -3.6,1.9 -2.8,1.7 -0.8,-2.8 -0.6,-5.5 0.1,-2.8 1.9,-1.6 0.8,-1.2 0.6,-4.5 2.5,-3.6 2.4,-0.4 3.1,-1 3.5,-0.9 1.4,1.9 4.9,3 1.2,1 2.3,3.4 4.4,1.8 3.1,-0.6 3.6,-2.4 1,-1.1 v -1.1 l -1.2,-4.7 -1.1,-2 0.1,-1.3 8.4,-2.8 1.5,1 1.1,-0.7 5.6,2.5 2.3,0.5 0.6,0.7 3.5,2.7 2.8,1.1 4,-1.2 3.4,1 z"
     id="LV"
     name="Latvia" />
  <path
     class="state"
     d="m 605.94997,482.45 -2,-2.3 0.9,-0.7 -1.4,-5 -0.1,-2.6 0.9,-4.8 -0.5,-2.9 -1.4,-2.3 -1.4,-2.9 -3,-2.1 -1.3,-1.7 -2.1,-1.8 -2.5,-3.2 -1.5,-1.3 -3,-4.9 -2.5,-3 -2.5,-1.6 h -2.1 l 0.2,-0.6 2.3,-1.4 0.7,0.2 4,0.1 1.2,-1 0.8,0.3 1.6,-1 3.5,1 3.6,2.4 2.5,0.3 0.6,1.2 5.6,0.6 1.4,1.9 1.4,1 1.4,-0.7 1.4,1.4 0.6,2.3 -0.6,3.1 0.6,1.2 2.3,1.2 2.9,2 v 2.4 l 0.9,1.9 2,1.3 2.1,0.8 1,1.6 0.2,2.9 2.9,1.7 -0.6,0.7 -2.9,0.4 -1.2,-1.3 -1.6,0.6 -2.1,-0.8 -1.9,-0.2 -2.1,-1 -2.5,1.6 0.5,2.1 1,1.7 -0.4,2 -2.3,1.7 v 1.3 l -2.5,2.9 0.5,1.4 -0.4,1 -2,0.2 z"
     id="MD"
     name="Moldova" />
  <path
     class="state"
     d="m 538.34997,531.05 3.3,3.2 3.4,1.8 1.7,3.3 0.9,1 -0.5,1.7 v 4.2 l -2,0.3 -0.2,2.1 -2.9,1 -3.3,-0.6 -3,0.4 -0.8,0.3 -1.7,2.5 -2.4,1.3 -2.3,-0.6 -0.9,0.6 -4.6,0.3 -1.3,-1.1 -1.6,0.2 -1.3,-2.4 -1.2,-1.1 -1.2,-2.2 -0.2,-1.9 -0.7,-2 0.8,-0.8 -0.3,-2.1 0.5,-2.6 1.7,0.3 0.5,-0.8 0.2,-2.6 3.4,-1.5 1,-0.1 1.6,1.2 1.5,-1.9 2.1,-0.4 2.2,-0.3 2,-0.9 1.9,0.3 2.3,-0.8 z"
     id="MK"
     name="Macedonia" />
  <path
     class="state"
     d="m 496.94997,512.15 0.4,1.2 2.6,1.7 1.9,2 3,1.6 2.1,0.5 5.3,2.9 0.1,1 -1.6,0.4 -0.2,0.7 -2,0.4 0.9,1.5 -0.2,1.3 -3.4,1.2 -0.8,-2.1 -1.1,-0.3 -3.2,5.3 -0.8,0.3 -2.5,-0.2 1.6,1.9 1.7,0.8 0.3,0.6 v 3.1 l -2.1,-1.2 -0.9,-1.8 -3.1,-2.9 -3.5,-2 0.1,-1 -1.6,0.1 -1.2,-1.9 1.1,-1 0.1,-0.8 -1.1,-1.6 -0.6,-3 0.5,-0.7 1.7,-0.2 -0.1,-1.5 0.5,-1.7 2,-1.7 2.3,-0.2 -1.4,-2.2 z"
     id="ME"
     name="Montenegro" />
  <path
     class="state"
     d="m 312.54997,260.15 0.1,1.7 -1,-0.1 -0.7,-1.1 -0.2,-2 0.7,-0.5 z m -1.8,-11.1 h -1.8 l 0.3,-1.3 0.9,-0.3 z m 32.5,-31.9 -2.3,-0.2 -1,-0.8 2.8,-0.8 0.7,0.5 z m 3.6,-4.6 -0.3,-0.9 2.7,-0.6 0.9,1 z m 28,-16.6 -4.2,0.3 -0.3,-1.1 2.1,-0.8 h 1.2 z m 6.8,-10.5 -2,0.3 0.1,-1.1 1.8,-0.3 z m 4.1,-5.7 -0.1,-1.1 1,-1.2 1,0.4 -0.3,1.5 z m 3.1,-24.9 -1.5,0.7 1.1,-2.6 1.1,-0.7 0.4,1.5 z m 8.5,-5.2 2.3,0.2 -0.5,0.8 -1.4,0.3 -1.1,0.8 -1.9,0.2 -1.9,1 -1.6,0.3 -0.4,-1.2 0.9,-1 h 1.3 l 1,-1.2 z m 12.4,-9 2.2,2.1 -0.3,1.5 -1.2,0.7 -3.3,0.1 -1.6,-0.9 -2.2,0.6 -1.6,-1.1 1.6,-1.4 2.6,0.4 0.5,-1.7 1.7,0.3 0.4,-1.5 z m 6.3,5 1.3,-1.1 1.5,-0.4 0.6,-2.2 1.8,-0.5 1.6,1 0.9,1.2 -0.2,1.1 -3.1,1.2 -2.5,2 -1.6,-0.2 -0.7,0.7 -2.4,0.6 -1.7,-0.9 -0.9,0.9 -1.4,0.4 -1.2,-0.4 -2.9,1.5 -2.8,0.3 -1,-1.1 3.1,-1.9 5.1,-0.6 2.9,-2.3 0.4,-2.5 0.6,-0.9 -1.3,-0.6 0.2,-1.7 2.4,-1.7 1.3,-1.4 1.5,-0.3 0.9,1.1 -1.1,1.4 -1.6,1.2 1.1,1.5 0.6,2.4 z m 15.5,-13.7 1.4,0.8 1.5,-0.3 2.3,0.7 1,1.5 -1.2,0.9 0.4,1.7 -3.8,0.5 -0.9,-0.5 -1.5,0.9 -1.4,1.4 -2.2,-0.6 0.2,-1.6 -0.3,-2.3 0.7,-0.5 2.9,0.3 -0.4,-2 z m 124,-2.6 -1.8,0.4 0.2,-1.8 z m -92.4,-3.8 -1.3,0.4 -1.8,-0.3 -0.7,-1 2.2,-1 1.7,0.3 z m -15.1,0.3 1,0.7 1.5,-0.5 1.1,1 -1.4,0.8 -0.8,1.2 -2,0.1 -2.9,2.3 -0.1,0.8 -5,0.5 -1.5,-0.3 1.7,-2.7 h 1.7 l 1.7,-0.8 -0.3,-0.8 2.5,-2 0.6,-1.7 1.4,-1 z m 4.8,-2 1.4,0.2 1.3,1.6 h -2.3 l -2,-1.8 z m 37.3,-4.3 0.5,1.1 -3.3,2.1 -1.6,0.1 -2.1,-1.2 0.1,-0.8 1.9,-0.9 0.9,0.1 2.7,-1.4 z m 3.9,-0.3 -1.8,0.5 -1.7,-0.9 -0.2,-1.6 0.8,-0.3 3.2,1.2 z m -6.4,-3.2 -0.4,0.8 -2.7,2.1 -2.2,0.7 -1.8,-0.3 -0.8,0.6 h -2 l -2,-0.6 -2,-1.2 3.5,-0.1 0.6,-0.5 h 1.5 l 2.8,-0.4 1.1,0.3 2.1,-1.4 z m 60.6,23.5 -1.7,-1.3 v -0.7 l 3.2,-2.9 0.7,-1 -2.6,-2.7 -3.6,-0.8 -4.2,-1.1 -4.2,-2 -1.8,-1.2 -2.9,0.3 -3.5,1.6 -0.9,0.2 -3.8,-0.4 -2.1,0.2 -1.7,1.8 -2.6,1.7 -0.7,3.8 -0.6,1.7 0.7,3.2 -1.5,1.4 -2.1,0.3 -1.6,1.3 -0.5,1.7 -1.3,0.6 -2.6,-0.8 -3.9,-0.8 -3.6,-1.1 -1.5,-0.1 -1.2,1.2 -3.7,0.9 -1.8,0.1 -0.8,-0.5 -6.9,-0.6 -1.4,-1.8 -7.9,-5.5 h -3.6 l -1.9,1.1 1,1.4 -0.5,0.6 -1.9,-0.4 h -2.1 l -0.5,0.4 -5.1,0.2 2.6,1.6 0.1,2 -1.4,1.9 -1.6,0.9 2.9,0.9 -2.5,1.6 -1,-0.1 -8.6,-1.7 -2.9,-0.1 -4.1,-0.9 -2.1,0.5 v 0.8 l 0.8,3.6 -2.1,3.1 -6.3,-1.8 -1.5,0.9 -3.7,1.9 -1.5,3.5 -1.1,1.1 -2.7,0.6 -0.5,1.1 2.7,2.3 1,1.3 -0.2,1.4 -1.5,1 -3.3,2.9 -3,2.9 -1.3,0.9 1,2.5 -3.3,1.5 -2.4,0.5 -3.8,0.4 1.4,3.9 -0.6,2.7 -0.1,4.7 -3.3,5 -4.4,5 4.7,1.6 1.1,2.9 0.1,1.2 -1.7,2.2 -7.1,-0.9 -3.3,0.4 -3.3,1.5 -3.5,3.8 -1.2,1 0.5,1.5 -2,2.8 2.7,4.1 -1.1,1.1 0.6,2.8 -0.1,1.8 2.5,4.4 v 1.6 l -0.9,6.4 3.8,2.1 1.2,0.4 3.4,2.7 -0.4,1.9 -1.3,2.5 h -2.4 l -1.8,0.6 0.3,1.6 3.1,4.9 0.5,1.4 -0.6,2.1 -0.1,2.8 -1.9,2 -1.3,0.8 -2.6,0.7 -0.9,2.4 -1.5,1.5 1.6,4.4 -0.6,3.9 -0.7,1.4 -1.9,0.2 -1,-1.8 -0.4,-1 -6,-1.2 -2.3,-2.9 -0.4,-3.1 -2.5,1.2 0.6,1.1 v 2.3 l -2.5,3.9 -1.1,-0.2 -1.3,0.8 -1.3,0.2 -0.6,-1 -1.1,0.2 -0.8,1 -3.4,1.3 1,0.7 -1.7,1 -0.6,0.9 -2.7,1.5 -4.3,3.9 -2.3,1.1 -1.6,1.2 h -1.4 l -1.8,0.9 -4.6,0.9 -3.1,-0.4 -2.1,0.4 -1.1,-0.7 v -1.1 l -1.2,-0.1 -0.8,1.2 -1.6,-0.4 0.7,-2.4 -3.1,-0.1 -3.8,-1.6 -0.9,-0.8 -3.1,-1.3 -1.4,-1.4 -0.8,-1.6 0.3,-3.6 0.6,-0.5 2.7,0.8 2.8,1.3 -0.1,-1.2 -2.4,-1.6 0.8,-1.8 -0.2,-1.6 2.6,-2.1 -0.4,-0.7 -3.4,2 -3.1,0.9 -1.1,1.2 -1.1,0.6 h -2.1 l -0.5,-0.9 0.5,-3.3 1.2,-2.7 1.8,-1 3.4,0.7 1,-1 1.3,-0.2 2.4,-1.2 -4.1,0.5 -1.2,-1 2.8,-2.4 1.2,-1.4 0.3,-1.5 2.2,-1.7 1.8,-0.8 1.6,0.6 1.5,-1.9 -5,1.1 -2,1.1 -2.7,2.8 -0.2,1.1 -2,0.9 -1.5,1.5 -0.6,1.2 -2.8,1.9 -1.4,0.3 v -2.4 l 1.1,-2 -0.3,-1.6 3.2,0.2 1.8,-1.2 h -2.7 l -1.4,-0.7 -1.2,-1.5 -0.6,-1.9 1.1,-1.8 -2.2,-2 -0.5,-2.2 -0.1,-2.5 0.9,-0.5 2.1,0.4 2.4,-0.2 5.2,-0.9 3.4,0.6 1.4,-0.1 2,-0.7 1.9,-0.1 2.2,1.2 0.7,-0.5 5.4,-1.2 -3,-1.5 0.1,1.4 -3.6,0.3 -3.2,-0.6 -1.3,-0.6 -0.5,1.3 -1.1,0.3 -3.4,-0.5 -4.7,0.3 -2.1,0.7 -1.4,-0.1 -2.5,-1.2 -0.9,-0.9 -0.3,-2.6 2.8,-0.3 -1.9,-2.3 -1.9,-1.3 -0.2,-1.4 0.7,-1.3 1.5,0.2 3.8,-0.1 6,1.5 4.9,-0.3 -0.8,-0.6 h -2.9 l -7.2,-1.3 -2.2,0.1 -1.2,-0.3 -0.7,-1 0.4,-1.9 1.1,-0.4 1.2,0.6 1.9,-2.3 1.9,-1 2,-0.5 2,1 1.3,-0.1 4,-0.8 -1.3,-0.5 -3.5,0.5 -0.2,-0.5 2.4,-2.3 4.2,-0.4 5.9,0.5 2.3,0.8 0.4,-1.8 5.3,-1.4 -6.8,0.8 -1.8,-0.5 -4.9,0.7 -0.1,-1.3 2.3,-2.3 4.1,-0.9 1.9,-1.1 3.1,-0.2 2.6,0.3 1.2,1.3 4.4,1.7 -5.1,-4 1.1,-1.7 3.3,-0.4 v -1.6 l -2.2,-0.3 v -1.2 l 1.9,-0.9 2.8,-0.7 3.2,0.8 -0.6,1.3 0.9,0.5 1.7,-1.5 3.9,-0.8 2.8,2.1 0.5,1.1 1.1,-0.5 2.7,-0.5 2.7,0.3 1.8,-0.2 -1,-1.3 0.4,-1 2.4,-1 1.7,-0.3 2.6,-1.2 -0.8,-1 -1.4,-0.3 2.9,-1.5 -1.7,-0.6 -2.4,0.9 -1.6,0.9 1.5,1 -1.1,1.1 -6.1,2.8 -3,0.8 -1.4,-0.1 -1.9,-2.5 -2.1,-0.1 1.3,-2.2 1.6,-0.8 1.4,-2.3 2.3,-1.3 3.2,-3.3 2.8,-1.1 0.9,-1.1 3,-1.5 3,-0.9 0.3,-1 -2.7,0.9 0.4,-2.1 1.4,-1 6.8,-2.8 1.6,1.3 2.1,-0.2 2.3,-1.6 -0.3,-0.7 -2.1,1 h -1.5 l -0.4,-0.6 -2.1,-0.5 -0.3,-1.2 1.3,-2.8 3.4,-3.3 0.5,-1.3 1.3,-0.7 1.7,0.2 -0.2,-1.1 -2.1,-1.1 6.2,-1.1 h 3 l 2.4,-0.9 0.5,-1 -6.4,1.1 -2.4,0.1 -0.8,-2.7 0.2,-1.5 1.9,-2.2 1.4,-0.2 1.7,-1.1 0.1,-1.5 2.3,-0.8 2.1,-2.1 2.3,-0.5 1.4,0.2 3,-0.7 6.6,-0.1 0.1,-0.6 -6.3,-0.3 -3.5,0.2 -0.4,-0.6 2.8,-2.7 2,-1 1.7,0.2 1.8,1 0.6,-0.8 -1.6,-1.5 0.7,-1.5 -2.6,1.1 -1.8,0.3 -0.9,-2 2.3,-2 h 2.3 l 0.3,-1.5 3.3,-1.3 1.9,-0.2 1.5,-0.6 0.6,0.4 0.9,2.3 1.5,0.3 1,-0.8 -1.3,-1.1 -1.1,-1.8 2,-1.5 2.3,-0.2 2.6,0.7 2.3,-0.2 0.9,-1.2 -6.3,-0.1 -0.8,-0.9 1.2,-1.2 2.2,-0.8 2.5,-0.1 2.4,-1.4 0.9,-1.1 0.3,-1.6 1.4,-1.3 3.9,-0.8 -0.6,-2.2 0.8,-1.4 1,-0.6 2.1,1.5 1.8,0.5 -0.5,-1.4 0.3,-1.2 h 2.1 l 1,-0.5 0.3,-1.3 1.4,-1.2 4.7,-0.7 0.5,2.5 0.7,1.4 0.8,-2.8 1.6,-2.1 2.4,-0.9 0.9,1.1 -0.4,4.3 -1.9,2.4 1.5,-0.2 2.5,-2.3 0.6,-1.2 -0.7,-2.8 0.6,-0.8 3.5,-0.1 1.9,0.4 0.7,-1.5 1.7,-0.1 1.8,0.9 4.1,1.4 -1.3,-2.2 -1,-0.8 -2.1,-0.5 -2.2,-1 1.2,-1 2.4,0.3 2,-0.8 2.2,-0.2 1.1,0.6 0.8,-1 2.5,-0.5 2.8,0.9 1.6,2.7 2.4,1.4 -0.1,-1.4 0.6,-1.9 2.3,-2 2.1,-1 1.4,-0.1 2.9,-3.4 -1.6,-1 3.3,-2.3 1.1,-0.1 5.4,2.1 1.5,-0.9 3.4,0.8 -0.8,1 -3.1,2.9 -0.5,0.8 -0.1,2.2 -1.2,1.4 0.8,1.4 1.6,-0.4 1.8,-1.3 0.1,-1.3 4.3,-3.7 1.9,-2.1 2.3,-1.7 1.5,-0.3 0.9,1.1 -0.2,1.5 0.2,4.3 3.7,-1.4 1.1,-3 1.1,-0.7 -0.8,-1.4 0.4,-1.1 2.3,-1.3 2.2,0.4 3.3,0.3 2.7,0.8 0.2,1.4 -0.8,0.9 -2.9,1.1 0.7,0.7 2,-0.6 0.9,5.5 0.9,-2.1 1,-0.7 0.1,-1.5 0.8,-1.9 1.8,-1.3 h 2.7 l 3.3,1.7 2.5,0.3 1.8,0.8 2.4,-0.7 2,1 0.1,1 3.8,0.3 3.8,1.6 0.6,1.6 -4.4,1 -1.8,1 -3.3,0.4 -11.5,-0.7 0.4,0.7 8.3,1.5 0.6,0.5 0.4,2.1 1.8,0.7 3.5,-0.2 v -1.3 l 3.2,0.6 3.8,0.2 1.1,1.7 -0.3,1.5 -2.4,0.1 -4.2,-1.4 -0.4,2.3 -1.1,0.9 -5.8,1.3 -1.1,2.6 z m -40.5,-27.7 3.7,0.5 2.2,1.4 -3.6,0.5 -1.7,-0.1 -2,-1.8 z m -339.6,3.9 -0.1,-1 4.5,-1.5 1.9,-1.4 3.4,-0.5 -0.2,1.8 -3,0.8 -3.3,0.5 z m 269.2,-45 -1,0.5 -1.9,-0.8 -0.8,-1.2 3,-0.1 z m 9.6,-50.1 3.9,0.2 2,1.9 1.4,2 1.3,0.2 4.7,-0.4 3.4,0.7 -1.4,1.1 v 1.2 l 5.5,1.3 1.8,0.1 3,-0.4 6.5,1.7 -6.6,1.1 -2,1.9 -3.7,1.3 h -2.6 l -2.3,1.3 -2.2,0.1 -1.5,-1.9 2.2,-1.3 -3.1,-0.4 -1.2,0.5 -10.5,1 -1.1,-0.2 -0.9,-1.2 2.8,-0.6 0.2,-1.1 2.5,-2.4 -5.5,-1.6 -2,-1.2 -0.8,-1 -2.5,-0.9 v -1 l -1.7,0.1 -0.4,-1.2 z m 46.2,-0.6 h -1.3 l -2.6,-0.8 0.7,-1 z m -137.6,0.4 3.5,1.5 1.9,0.5 2.3,1.5 -0.7,0.9 -2,-1.2 -3.6,-1.3 -2.3,-0.2 -3.3,-2.5 -1.5,-0.8 -0.8,-1.7 3.6,0.7 1.6,1 -0.3,0.8 z m 155.6,-3.4 2.7,0.1 -0.1,0.6 -7.3,-0.4 -3.8,0.7 0.4,-0.9 2.4,-0.6 3.7,-0.1 z m -109.9,-10.8000001 1.4,-0.6 5.4,0.8 2.5,0.9 1.3,1 -1.9,1.9000001 1.7,1 3.2,-1.7000001 2.7,0.3 1.7,0.9000001 1,1.1 -0.2,1.4 3.1,1.1 3.4,-0.2 2.4,0.3 1.5,1 1.9,-0.2 0.2,-0.8 2.6,0.2 3,0.8 -2.1,0.9 2.1,0.8 3.4,0.6 2.1,0.6 -1.5,1.4 h -3.2 l -2.9,0.3 -5.4,0.3 -3,1.6 -2.5,1.8 -0.4,1.6 0.6,1.1 -1.5,0.5 -3.3,0.2 0.2,3.9 -0.8,1.9 -3.3,0.3 -1.8,1.1 -1.2,2.1 -2.1,2 1,1 -2.1,1.9 1.2,1.8 -1,0.6 -2.1,0.3 -2.2,-0.3 -2.3,-1.1 -6.7,-2.2 -4.3,-2.4 -6,-1.3 -3.3,-1.6 -1.5,-1.3 0.3,-1.4 2.8,-0.2 2.9,0.7 1.7,-1.9 11.3,-1.1 7.3,-0.2 -1.9,-1.3 -6.9,0.7 -4.3,-0.2 -2.1,0.1 -2.1,0.6 -4.3,0.5 -4.6,-0.1 -2.9,-1 -1.3,-2 1.2,-0.6 3.8,0.1 6.4,-0.9 3,-0.8 3.1,-0.1 -0.5,-0.8 1.8,-0.4 2.4,-0.2 5.6,0.1 0.2,-0.6 -2.6,-0.6 -0.9,-0.6 2.6,-1.8 -2.2,0.1 -3,1.3 -1.8,0.5 -4.6,0.3 -1.7,-1.6 0.9,-1.2 -0.8,-0.7 -1.3,1.3 -2.1,0.3 -2,-0.9 -1.9,0.5 0.7,1 -0.6,1 2,0.9 -2.3,0.6 -2.1,1.1 -3.9,0.2 -4.5,0.1 -4.6,-1.6 -2.2,-1.2 -1.8,-1.2 -2.7,-0.6 -1.7,-0.8 -0.4,-1.1 -1.4,-0.7 -0.7,-1.2 h 4.4 l -1.7,-1.8 0.5,-1.6 -3.4,0.1 0.4,0.9 -2.2,1 -1.2,-0.2 -2.3,-1.9 -2.4,-2.4 0.4,-1.3000001 -1.2,-1 1.5,-0.7 2.5,0.9 0.8,-0.7 3.8,-0.4 4.6,1.1 0.4,-1.1 4.2,0.5 3,-0.6 5,-0.3 2,0.4 -1,1.1 -6.3,0.3 -4,1.3 5.7,-0.2 1,0.1 0.6,1.1000001 3,0.5 2.3,1 0.8,-0.5 -0.6,-2.2000001 4.4,-2.3 2.1,0.4 2.1,0.9 4,3.0000001 2.3,1.9 6.1,2.8 -0.7,-1.5 -4.2,-4.5 -0.9,-1.7000001 0.9,-1.7 1.1,-0.5 -0.4,-1.3 1.3,-0.5 2.4,0.3 z m 134.7,-2.3 -8,0.4 -0.9,-0.3 15.7,-1.4 1.7,0.5 z m -118.9,-1.9 -1.8,0.6 -3.2,-0.5 0.9,-0.7 z m 18.6,0.5 5.6,0.1 1.5,0.9 5.5,1.1 0.8,-1.5 -0.6,-2.2 1.9,-0.1 1.7,-0.6 3.1,0.3 0.2,1.3 -0.5,1.4 2.1,0.1 2.8,-0.3 1.9,-1.1 2.4,0.1 1.3,-0.6 1.4,0.6 8.2,0.7 3.3,0.6 h 5.2 l 3.7,0.2 2.8,1 1.1,1.7 -0.9,0.4 -6.7,2 -1.6,0.7 -2.4,2.3000001 -4.1,0.7 -3.5,-0.3 -3,0.7 -1.9,1 -1.5,0.2 -9.2,-0.4 -2.2,-1.1 1.2,-0.9 -8.2,0.3 -9.2,-0.1 -1,-0.5 -5.6,-0.5 -4.2,-1.1000001 1.1,-0.5 h 5.8 l -0.7,-1.5 -2.9,-0.1 -1.8,0.4 -4.3,0.2 -4,-0.1 -1.9,-0.3 -3.8,-1 -0.7,-0.8 2.8,-0.4 2.1,-0.7 -4.5,-0.3 -1.9,-0.3 -0.6,-0.9 5.9,-0.2 5,0.8 -0.7,-2.2 3.9,1.1 0.2,-1.1 -2,-1.4 2,-0.1 4.5,0.7 z"
     id="NO"
     name="Norway" />
  <path
     class="state"
     d="m 521.34997,347.25 0.6,-0.6 2.3,0.7 4.5,2.2 1.1,0.9 0.8,3 2.1,5.1 2.9,4.9 1.7,3.6 0.9,3.9 -0.6,1.6 -4,1.7 -0.8,0.5 -2,2.7 v 1.2 l 3.3,1.3 1.8,1 0.8,1 -0.2,2.4 0.4,1.1 -0.8,1.5 0.1,1.3 1,1.6 1.2,1.8 v 1.3 l 2.7,2.8 1.9,2.8 1.4,1 -1.2,1.3 1.8,2.6 0.1,1.3 -1.2,1.8 -3,0.5 -4.8,4.6 -2.4,2.7 -3.4,4.4 -0.6,1 1.5,3.8 -0.1,1.8 1.9,1.4 -0.4,0.9 -3.3,-0.7 -0.9,-0.2 -5.7,-1.9 -0.8,-1.4 -1,-0.7 -3.1,-1 -3.6,-0.3 -3.2,0.2 -1.4,1.5 -1.8,-0.1 -2.4,-1 -3,0.1 -2.3,1 -1.1,2.1 -1.7,-0.6 -1.4,0.4 -0.6,-2.7 -1.4,-0.4 -3,-3 -2.2,1.3 -1,1.7 h -2.2 l -0.5,-1.5 -1.3,-0.2 -0.5,-1.6 -2.8,-2.2 -0.5,-1.8 -2.7,-0.8 -0.5,0.2 -3.5,-1.8 -1.8,1 -1,-0.6 -2.7,-2.3 1.4,-0.5 v -1.6 l -3.6,0.7 -3.3,-1.9 -2.2,-0.6 h -1.3 l 1.7,2.4 -3.5,2.5 -1,-0.4 -1.5,-1.9 -2,-1.8 -1.6,-0.9 1.6,-1.2 0.7,-1.1 -1.8,-1.2 -3.2,0.7 -0.8,-0.9 -2.7,-1.1 -4.6,-1.1 -1,-1.1 -0.3,-1.1 -3.3,-0.8 0.1,1.9 -2.1,0.4 1.6,-3.6 0.4,-2.3 -1.6,-3.2 -2.2,-0.9 v -1.6 l -1.9,-3.1 0.8,-1.1 0.7,-2.6 -0.8,-1.9 -2,-2.3 0.6,-2.6 -1.4,-1.7 -3.3,-2.1 -1.6,-1.4 0.7,-1.6 1.9,-1.8 0.3,-2.7 -1.8,-4.1 -0.7,-2.6 2.8,0.9 0.7,-0.5 -0.1,-1.8 -4.1,-0.7 -0.1,-1.2 2,0.4 3.8,-1.4 6.5,-1.8 6.9,-1.7 3.3,-0.5 2,-2.2 1.9,-1.7 3.8,-0.7 1.3,-0.8 2.8,-1.2 6.6,-1.2 5.5,-0.4 5.4,2.3 -0.9,0.3 -3,-1.2 2.2,3.5 1.1,1.2 2,0.9 1.7,0.3 4.9,-0.5 2.2,-1.1 0.5,0.1 6.6,0.4 22.9,0.9 z"
     id="PL"
     name="Poland" />
  <path
     class="state"
     d="m 160.54997,611.15 -1.2,0.2 -4.5,2.5 h -1.3 l -2.5,-1.1 -4.5,-0.4 -1.5,-0.3 -1.8,0.7 h -1.5 l -1.1,1 -0.8,-0.3 1,-2.1 1.6,-4.1 v -2.6 l 0.4,-2.2 -0.3,-2.1 -0.7,-1.4 1.1,-3.5 v -1.8 l -0.9,-2.3 2.8,0.3 -1.7,-1.4 h -1.5 l -2.3,0.9 -1.5,0.1 0.1,-1.4 -0.5,-1.8 2,-0.6 1.6,-1.7 -0.3,-1.6 -1.2,1.1 -0.6,1.4 -2.8,0.7 -1.5,-0.5 v -1.9 l 0.6,-1.7 0.4,-2.3 0.8,-2.2 -0.2,-1.4 1.6,-1.3 1.4,-1.9 4.3,-8.9 -0.6,-1 1.7,-6.6 1.2,-2.3 0.6,-4.3 -0.2,-2 -0.7,-2 -0.7,-4.3 v -1.4 l -0.9,-1.8 0.1,-1 1.4,-1.7 1.2,-1.1 1.9,-0.9 4.1,-1 1,1.8 -1.3,1.9 0.9,1.3 3,-1.1 2.9,-0.1 2.2,0.8 h 1.4 l 2.5,-0.9 0.8,-1.4 1.5,0.5 5.2,0.1 0.7,1.1 0.1,3.1 1.9,0.2 1.9,0.9 0.3,1.1 -2.5,2.5 -2.1,1.1 -1.6,1.4 -1.1,1.6 -2,1.6 0.8,2 0.4,3.5 -0.4,3.8 0.4,1.1 -2.7,2.1 -0.2,1 1.4,1.3 v 1.9 l -1.7,3.5 -1,0.5 h -4.3 l -1.1,0.3 1.1,1.9 1.4,1.2 0.3,1.9 1.6,3.2 1.7,0.4 0.5,0.8 -0.6,2.4 -3.2,3 -0.9,4 3,4.3 1.7,-0.2 -0.7,2.4 -2.1,0.6 -3.5,4.3 -0.8,2.2 z"
     id="PT"
     name="Portugal" />
  <path
     class="state"
     d="m 605.94997,482.45 1.5,1.6 1.8,0.9 4,0.9 0.6,-1.2 0.9,0.3 1.6,-0.5 2.2,-1.3 2.2,-0.2 2.2,0.7 1.9,1.8 -0.2,4.3 -0.7,2.1 -6.2,1.3 0.4,-0.6 -0.7,-2 -1,-1 -0.9,1.1 0.6,1.7 -0.7,1.4 -0.2,2.4 0.6,0.9 -1.6,2 -0.5,1.3 0.8,4.8 -0.4,3.7 h -2 l -2.6,-0.5 -2.2,-0.7 -2.5,-2.6 -1.7,0.5 -0.9,-0.6 -3.2,-0.4 -4.5,-2.3 -2.9,0.4 -4.4,0.9 -3.2,1.2 -3.3,2.1 -1.2,1.6 -1.6,0.9 -2.3,0.6 -4.2,-0.2 -9.4,-1.7 -2.5,0.5 -3.5,-0.4 -5.3,-1 -3.9,-0.3 -3.7,0.6 -0.9,-1.8 1.8,-2 -4.3,-2.5 -0.8,-1.2 -1.6,-0.9 -0.5,-1.7 2.5,-1.8 -3,-1.6 -1.7,0.5 -1.7,1.8 -1.3,0.2 -1,-1.2 -1.5,-0.7 -3.5,-0.7 -1.5,-1.2 -2.1,-0.6 0.2,-0.6 1.8,-0.8 -2.3,-1.1 1.5,-2 -0.9,-1.1 -2.6,-0.8 -3.8,-1.9 -2.2,-1.8 -0.4,-4.1 -0.8,0.2 -1.8,-2 -2.9,-1.7 -1.7,-2 3.2,-0.9 1.4,0.5 2.5,-2 2.6,0.3 1.3,-0.9 1.5,-4.7 2.1,-1.5 -0.2,-1.3 1.6,-2.7 v -1.2 l 1.4,-1.5 0.7,-2.5 1.4,-1.4 -0.1,-1.7 1.2,-1 1.9,-2.4 4.6,-1.1 2.2,-2.3 2.1,-0.9 0.9,-1.2 h 0.7 l 2.7,1.5 2.7,-0.1 6.9,1.4 3.6,-0.7 1.2,0.3 4.3,3.3 2.1,-0.5 1,-1.2 3.4,-1.3 8.4,-1.2 1.1,-1.9 0.2,-1.4 3.7,-0.8 h 2.1 l 2.5,1.6 2.5,3 3,4.9 1.5,1.3 2.5,3.2 2.1,1.8 1.3,1.7 3,2.1 1.4,2.9 1.4,2.3 0.5,2.9 -0.9,4.8 0.1,2.6 1.4,5 -0.9,0.7 z"
     id="RO"
     name="Romania" />
  <path
     class="state"
     d="m 506.14997,472.35 1.7,2 2.9,1.7 1.8,2 0.8,-0.2 0.4,4.1 2.2,1.8 3.8,1.9 2.6,0.8 0.9,1.1 -1.5,2 2.3,1.1 -1.8,0.8 -0.2,0.6 2.1,0.6 1.5,1.2 3.5,0.7 1.5,0.7 1,1.2 1.3,-0.2 1.7,-1.8 1.7,-0.5 3,1.6 -2.5,1.8 0.5,1.7 1.6,0.9 0.8,1.2 -0.9,0.7 -0.2,1.9 -2.1,1 -0.4,2.3 0.6,2.4 2.4,3.9 2.9,1.5 1.3,1.6 1.6,1 -0.3,1.4 -1.6,1.7 -1.1,1.6 -1.8,0.1 -1.1,0.6 v 3.3 l 1.4,2.9 -1.1,1.7 -1,0.3 -1.4,-0.7 -2.3,0.8 -1.9,-0.3 -2,0.9 -2.2,0.3 -0.6,-1.3 1,-0.9 1.2,-3.2 0.2,-1.2 -4.7,-1.2 v -1.3 l -2.2,-1.2 -0.2,-0.7 -2.3,-2.1 -2.8,-1.3 -1.1,-1.3 -1.7,0.9 0.6,1.6 -0.4,1 -1.7,1.3 v 1.4 l -1.5,0.5 -0.1,-1 -5.3,-2.9 -2.1,-0.5 -3,-1.6 -1.9,-2 -2.6,-1.7 -0.4,-1.2 0.7,-0.8 2.5,0.3 0.2,-2.2 -3.2,-3.7 0.5,-0.8 3.1,0.1 0.3,-0.8 -3.3,-2.9 -2.4,-1.2 -0.5,-0.8 0.1,-2.6 1.6,-2.7 0.5,-2.5 -1.5,-0.8 -2.8,0.7 1,-1.6 -0.7,-2.6 1.7,-0.4 2.3,-0.1 -0.9,-1.5 -3,-1 -1.2,-1 0.4,-2 -1.3,-0.4 -0.2,-1.6 -1.6,-2.7 0.7,-1.5 2.1,-1.3 1.6,0.5 2.2,-1 1.5,-1.6 1,-0.3 2.9,0.4 1.1,-0.2 2.8,0.3 z"
     id="RS"
     name="Serbia" />
  <path
     class="state"
     d="m 529.34997,426.95 -1.5,3 -0.8,2.9 -1.6,1.7 0.1,2.5 -4.3,1.1 -0.6,-0.2 -2.2,-2.2 -1.4,-0.9 -4.6,0.7 -2.5,-0.6 -2.7,-0.1 -1.8,0.4 -1.6,3.5 -5,2.5 -3.5,-1.4 -0.7,0.2 -1,1.5 -2.4,0.6 -4.3,0.4 -1.4,0.7 -0.4,1 0.5,1.3 -0.6,1 -7,0.4 -4.7,-0.1 -1.6,-0.7 -4.2,-2.7 -2.1,-0.3 -2.3,-2.9 -1.6,-2.9 -0.1,-0.8 0.9,-2.4 1.1,-2.8 1.4,-1.2 3.6,0.5 1.7,-0.2 1.5,-0.7 2.1,-1.9 1.6,-0.8 0.7,-3 2.3,-1.2 0.6,-0.8 2,-1.5 2.8,-0.3 1.3,0.2 0.5,1.5 h 2.2 l 1,-1.7 2.2,-1.3 3,3 1.4,0.4 0.6,2.7 1.4,-0.4 1.7,0.6 1.1,-2.1 2.3,-1 3,-0.1 2.4,1 1.8,0.1 1.4,-1.5 3.2,-0.2 3.6,0.3 3.1,1 1,0.7 0.8,1.4 5.7,1.9 z"
     id="SK"
     name="Slovakia" />
  <path
     class="state"
     d="m 459.74997,466.35 -2.5,-0.6 -0.9,0.8 v 1.7 h -2 l -0.7,1 -4.4,1.7 -0.4,1.4 0.9,0.9 0.2,2.2 -0.4,1.1 -2.1,0.6 -2.1,1 1,1.1 -0.7,0.7 0.8,2.3 -1.2,0.4 -1.6,-0.2 -2,-0.7 -1.3,0.5 -1.5,-0.7 -2.6,-2.1 -1.2,2.2 -0.6,0.3 -3.6,0.1 -1.1,-0.5 -1.4,1.3 -3.3,-0.8 -0.5,-0.6 1.7,-1.1 1.5,-0.1 -0.2,-1.3 -1.5,-1.3 -1.9,-1.1 0.4,-2 -1.3,-0.2 -0.3,-1 1.6,-2.1 -2.3,-0.7 -0.7,-1.4 3.3,-2.3 0.2,-0.9 5,0.9 5,0.7 3,-1.2 1,-1.3 1.9,-0.7 2.6,-0.2 2.8,0.2 2.3,-1.1 1.6,-0.2 2.4,0.5 0.1,-1.9 1.3,-0.9 2.4,0.1 1.4,3.3 z"
     id="SI"
     name="Slovenia" />
  <path
     class="state"
     d="m 445.64997,318.65 -1.5,-0.3 -0.3,-3.8 2,-4.6 1,-0.3 2.7,-6.5 0.5,2 -1.5,3.2 -0.3,2.2 -0.6,0.5 z m 26.2,-22.7 -1.3,1.4 -1.4,0.5 0.1,3.3 1.5,1.2 -1.3,0.5 -0.7,1.8 -1.8,0.6 -1.5,1.6 -0.3,1.6 -2.1,0.9 1.2,-2.4 -0.9,-0.7 -1.4,-2.1 0.4,-0.9 -0.6,-3.2 2.7,-2.9 1.3,-1.1 3.3,-1 h 1.3 z m 36.8,-113 -2.7,0.3 -2.2,-0.6 -1,0.3 -3.8,0.3 -1.1,0.7 -2.1,-0.7 -2,-1.2 -2,1.1 -1.6,-1 -1,1.9 0.1,1.8 -1.8,-0.2 0.3,1.1 -2,1.5 -3.2,0.2 0.7,1.5 -0.9,0.7 1,1.7 -1.3,1.5 -2.1,1.9 -0.5,1 1.7,1.1 1.6,2.5 1.6,1.1 -0.4,1.2 -2.1,1.1 -2.2,1.7 -2,4.3 -3.1,1.3 -2.4,1.6 -3,0.7 -2.4,2.2 -1.8,-0.8 -1.5,0.5 -1,1.8 -1.9,1.5 -2.4,-0.2 0.2,0.8 -2.3,0.3 -1,4 -2.2,0.6 -0.7,0.8 -0.9,-0.6 -2.1,0.1 1.6,2.8 -1.7,1.8 h -1.2 l -1.5,0.7 -1.9,-0.8 -0.2,1.2 0.8,1.3 1.3,1 -0.1,1.3 -0.9,4.3 0.7,1.8 -2.1,1.2 -0.8,1.1 0.6,1.7 -0.1,1.1 0.7,1.9 0.8,4.2 1.1,2 -0.1,1.6 1.3,0.9 2.1,-0.1 1.4,1.6 3.1,-0.8 0.8,1.1 2.9,2.2 1.7,0.3 1.9,1.2 v 1.5 l 2.9,1 1.9,2 0.8,1.6 -0.1,1 -2.6,1.5 -1.3,1.3 -3.8,2.1 -0.6,-0.1 -2.1,1 2,0.6 1.4,-0.7 2.6,-0.6 1.4,1.2 -2.2,0.5 -0.3,1.6 -0.8,1 -2,0.7 -2.8,1.5 -4,1.4 -1.1,1.2 -2.6,1 -1.3,0.8 h -3.8 l -3.7,-0.1 1,0.9 0.9,-0.2 3.6,0.4 1.7,1.3 -3,0.9 1.7,3.2 -0.7,0.8 0.4,3.5 -1.1,0.1 -0.3,1.4 0.6,2.5 1,2.1 -0.1,1 -1.5,2.4 0.9,2.9 -1.5,5.3 -1.9,3.1 -1.3,4.1 -1.8,1.4 -2.4,-0.9 -3.4,0.5 -3.2,-0.3 -3,0.2 -0.8,0.4 0.7,1.4 -2.3,-0.2 -1.7,1.1 -2,2.1 v 1.5 l 1.9,3 -1.7,2 h -1.1 l -3.2,-0.5 -5.5,1.2 -5.1,-1 0.5,-1 0.2,-3.1 -0.6,-1.7 -1.3,-1.1 -3.1,-3.8 -1.2,-2.3 2.4,0.9 1,-0.5 -1.8,-2.6 2.2,-0.1 0.7,-1 -0.6,-1.5 -1.9,-0.6 -1.9,-2.4 -1.8,-1.2 -3.5,-4.7 -1.3,-3.2 -1.1,0.3 -1.2,-3.7 -1.7,-0.6 -0.6,-3.7 -1.8,-0.4 -1.3,-1.7 -0.4,-3.2 -1.2,-0.6 -0.8,-1.4 -0.8,-3 -0.3,-2.7 -0.9,-1.8 0.5,-1.2 1.1,-0.2 1.1,0.8 1,1.8 1.9,-0.2 0.7,-1.4 0.6,-3.9 -1.6,-4.4 1.5,-1.5 0.9,-2.4 2.6,-0.7 1.3,-0.8 1.9,-2 0.1,-2.8 0.6,-2.1 -0.5,-1.4 -3.1,-4.9 -0.3,-1.6 1.8,-0.6 h 2.4 l 1.3,-2.5 0.4,-1.9 -3.4,-2.7 -1.2,-0.4 -3.8,-2.1 0.9,-6.4 v -1.6 l -2.5,-4.4 0.1,-1.8 -0.6,-2.8 1.1,-1.1 -2.7,-4.1 2,-2.8 -0.5,-1.5 1.2,-1 3.5,-3.8 3.3,-1.5 3.3,-0.4 7.1,0.9 1.7,-2.2 -0.1,-1.2 -1.1,-2.9 -4.7,-1.6 4.4,-5 3.3,-5 0.1,-4.7 0.6,-2.7 -1.4,-3.9 3.8,-0.4 2.4,-0.5 3.3,-1.5 -1,-2.5 1.3,-0.9 3,-2.9 3.3,-2.9 1.5,-1 0.2,-1.4 -1,-1.3 -2.7,-2.3 0.5,-1.1 2.7,-0.6 1.1,-1.1 1.5,-3.5 3.7,-1.9 1.5,-0.9 6.3,1.8 2.1,-3.1 -0.8,-3.6 v -0.8 l 2.1,-0.5 4.1,0.9 2.9,0.1 8.6,1.7 1,0.1 2.5,-1.6 -2.9,-0.9 1.6,-0.9 1.4,-1.9 -0.1,-2 -2.6,-1.6 5.1,-0.2 2.9,0.8 0.4,0.9 2.9,1.1 4.8,2.3 4.2,1.8 8.3,1.7 3.5,1.8 1.2,1.6 1.4,0.1 1.9,1.5 1.8,0.9 -1.1,1 0.4,2.4 0.7,1.4 -0.3,1.9 2.8,0.4 0.6,1.3 -1,0.8 -0.1,1.1 0.8,1.6 3.3,2.6 0.6,0.9 -0.7,1.4 0.1,1.8 -1.5,1.3 v 1.3 l 1.3,2.6 1.8,0.6 1.9,2.2 z"
     id="SE"
     name="Sweden" />
  <path
     class="state"
     d="m 587.94997,564.95 -2.9,0.5 -0.1,-1.5 2.2,-0.6 z m 194.5,-21.5 4.3,1.3 1.1,-1 3.6,0.1 3.4,0.8 0.9,-1.9 1.4,-0.4 1.4,0.3 0.6,1.1 1.2,0.4 3.5,2.5 1.1,1.7 1.9,0.2 1.3,1.2 1.3,1.6 1.7,1.2 1.7,3.3 -0.2,2.3 -1,1.4 0.8,1.9 1.9,3 -0.5,0.6 1.8,0.9 2.9,0.9 3.5,-0.4 1.6,0.7 2.3,1.7 3.2,2.8 0.8,0.9 -3.3,-1.9 -1.4,1.6 -0.1,3.8 -0.6,0.4 -2.8,-0.1 -1.2,0.4 1.2,2.5 1.4,1.2 v 2.3 l 2.1,2.5 0.2,2.1 0.9,2.2 0.3,2.2 0.5,0.7 1.4,0.3 -0.6,3.8 -0.6,1.2 -0.4,2 1.7,0.6 3.2,2 0.1,1.3 0.6,1.5 0.3,2 3.2,2.3 v 2.3 l -2.1,-0.5 -3.7,3.1 -1.2,-1.2 -0.3,-2.4 -1.5,-1.5 -1.3,-0.2 -2.1,1.4 -4.2,-0.3 -2.9,-1.1 -2.9,-0.8 -1.9,0.6 -2.2,-0.7 -1.5,1.9 -2,1.9 -1.2,0.3 -1.6,-2.6 -1.3,-0.2 -1.2,1.3 -2.2,0.8 -4.6,1 -3.2,0.3 -4.1,-0.6 -3.2,0.2 -3.1,1.4 -5.2,2.8 -4.1,1.4 -4.2,0.9 -7.6,-0.2 -1.1,-0.3 -3.5,-2.3 -3.4,-0.6 -3.4,1.6 -2.3,0.8 -3.5,1.6 -4.8,-0.1 -1.9,-1.7 -3.7,-0.7 -0.6,1.6 -0.3,3.8 1.8,3.1 -3.3,1.4 v 2.6 l -1.8,1.1 -0.8,1.6 -2.2,-1.2 -1,-0.1 0.7,-1.3 -2.5,-4.9 0.7,-1.5 3.5,-3.9 -0.4,-2.4 -2,-1.6 -2.9,2.1 -1.7,0.8 -0.3,1.2 -1.1,0.8 -1.8,0.4 -2.9,-1 -3.2,-1.4 -1.9,-1.1 -1.4,-0.3 -1.3,0.5 -3.5,2.8 -3.1,4.1 -0.8,0.8 -3.2,1.7 -2.2,0.6 -1,-0.1 -4.4,0.8 -2.2,0.1 -1.6,0.9 -3.5,-1 -2.2,-1.3 -1.4,-1.3 -2.3,-2.9 -1.6,-1.3 -3.3,-1.2 -5.8,-3 -5.3,-0.7 -4,-0.3 -0.7,1.1 0.1,4.2 -0.5,1.2 -0.1,2.2 -1.1,1.1 -2.1,-1 -1.9,0.9 -3.7,1.3 -1.2,0.1 -4.6,-1.6 -2.9,-2.1 -0.6,-2 -1.3,-2.7 -1.8,0.3 -2.3,-0.4 -3.2,-1.6 -2.4,-0.1 -1.2,1.9 -1,0.7 -1.3,-0.4 0.8,-1.3 -3.7,0.2 -1.8,1 -1.5,-0.1 -1,-1 2,-0.6 3.9,-0.4 0.9,-0.4 0.9,-1.3 1.7,-1.2 -1.2,-0.5 -6,0.3 -4.2,-0.2 -1,0.7 -0.4,-1.6 3.6,-1.4 -0.3,-1.3 -4.2,-2.2 -0.3,-1.6 -2,-3.1 1.9,-0.5 0.1,-2.5 -0.4,-1.5 -3.9,-1.3 -0.8,0.1 -1.1,-1.3 -1.7,-0.9 -1.2,0.7 -3.3,-1.4 -0.6,-0.6 0.5,-1.4 1,-1.1 -0.9,-1.9 -0.1,-1 1.8,-0.1 1,1.1 0.3,2.2 3.6,0.7 2.9,-0.6 -2.5,-1.1 -1.1,-1.2 -1.2,-2.3 1.8,-1.1 1.2,-1.7 -2.7,-1.2 0.2,-2.4 -2.5,-2.7 0.3,-0.8 2.3,-2.8 -1.2,-0.7 -4.3,0.7 -1.6,0.6 -3.1,0.2 -0.3,-1.6 0.6,-1.3 -0.5,-3.4 0.2,-1.8 1.7,-0.6 1.7,-2.7 3,-3.1 h 3.5 l 1.3,-0.9 h 2.1 l 0.8,1.2 1.9,0.9 3.2,-0.1 1.4,-0.9 -1.6,-1.5 1.7,-0.5 1.5,0.4 -0.1,1.8 4.1,-0.5 4.4,0.4 1.4,-0.2 h 3.4 l 0.5,-0.5 -3.6,-1.7 2,-1.5 6.8,-1.2 3.7,-0.8 -5.7,-0.8 -1.4,-0.6 -2,-1.4 -1,-1.1 0.3,-2.6 0.6,-0.7 2.2,-0.1 7.7,1.2 5.3,-0.8 6.1,1.8 5.6,-0.4 1.1,-0.7 1.1,-2.6 7.4,-4.2 2.4,-2.1 2.8,-1.2 5,-1.4 4,-1.7 1.2,-0.2 10.4,0.8 7,0.1 3,-1.6 2,0.5 -0.1,2.1 2.6,2.6 3.5,1.4 4.4,-1.2 1.8,0.5 2.2,4 1.5,1.4 1.8,0.9 1.3,0.2 1.5,-1.4 1.7,-0.1 2.9,1.3 1.2,1.4 4.8,1.1 4.3,0.6 2,1.2 6.2,1.2 2.2,-0.2 3.6,-1.3 7,-1.3 5.2,1.9 2.5,0.1 1.7,0.5 1.7,-0.3 5,-2.3 1.4,-1.2 1.7,-0.4 5.2,-3.3 z m -171.9,-7.1 -0.1,1.8 1,2 2.3,2.7 2,1.4 8.1,3.3 1.4,0.3 -0.9,3.5 -2.1,0.5 -6.4,-1.5 -1.6,-0.1 -2.9,1.4 -2.3,-0.4 -3.1,0.6 -0.6,2.1 -2,2.4 -3.3,1.9 -2.5,1 -3.5,3.7 -1.5,2.2 -1.5,0.7 0.5,-2 -0.3,-1.7 2.3,-2 3.3,-1.6 0.7,-1.3 -5.4,0.3 h -3.3 l -1,-1.8 0.8,-0.4 2.5,-3.2 -0.5,-4.4 3.4,-2.5 -0.9,-3.1 -2.3,-1.5 -1.2,-0.3 0.3,-1.4 1.9,-0.3 1,-2.2 3.4,-0.4 1.5,-1.1 3.5,-0.3 3.4,2.5 1.5,-0.6 h 1.8 l 0.9,-0.4 z"
     id="TR"
     name="Turkey" />
  <path
     class="state"
     d="m 651.24997,470.85 v 0.6 l -3.9,-0.8 -0.9,-0.9 z m -26.4,14.6 -1.9,-1.8 -2.2,-0.7 -2.2,0.2 -2.2,1.3 -1.6,0.5 -0.9,-0.3 -0.6,1.2 -4,-0.9 -1.8,-0.9 -1.5,-1.6 1.1,-0.7 2,-0.2 0.4,-1 -0.5,-1.4 2.5,-2.9 v -1.3 l 2.3,-1.7 0.4,-2 -1,-1.7 -0.5,-2.1 2.5,-1.6 2.1,1 1.9,0.2 2.1,0.8 1.6,-0.6 1.2,1.3 2.9,-0.4 0.6,-0.7 -2.9,-1.7 -0.2,-2.9 -1,-1.6 -2.1,-0.8 -2,-1.3 -0.9,-1.9 v -2.4 l -2.9,-2 -2.3,-1.2 -0.6,-1.2 0.6,-3.1 -0.6,-2.3 -1.4,-1.4 -1.4,0.7 -1.4,-1 -1.4,-1.9 -5.6,-0.6 -0.6,-1.2 -2.5,-0.3 -3.6,-2.4 -3.5,-1 -1.6,1 -0.8,-0.3 -1.2,1 -4,-0.1 -0.7,-0.2 -2.3,1.4 -0.2,0.6 -3.7,0.8 -0.2,1.4 -1.1,1.9 -8.4,1.2 -3.4,1.3 -1,1.2 -2.1,0.5 -4.3,-3.3 -1.2,-0.3 -3.6,0.7 -6.9,-1.4 -2.7,0.1 -2.7,-1.5 h -0.7 l -0.9,1.2 -2.1,0.9 -0.7,-1.7 -0.9,-0.7 -2.3,-0.4 -0.9,-1.1 -2.2,-0.8 -1.4,-2.3 h -1.5 l -0.1,-2.5 1.6,-1.7 0.8,-2.9 1.5,-3 3.3,0.7 0.4,-0.9 -1.9,-1.4 0.1,-1.8 -1.5,-3.8 0.6,-1 3.4,-4.4 2.4,-2.7 4.8,-4.6 3,-0.5 1.2,-1.8 -0.1,-1.3 -1.8,-2.6 1.2,-1.3 -1.4,-1 -1.9,-2.8 -2.7,-2.8 v -1.3 l -1.2,-1.8 -0.1,-1.4 1.1,-0.5 1.9,0.3 1.1,0.5 1.9,-1.2 1.6,-1.6 0.8,-1.4 5.9,-0.5 2.3,-0.5 2.4,-0.1 7.8,0.4 6.5,1.5 6.1,0.9 h 2.3 l 1.8,2.1 1,0.3 3,-0.1 1.1,0.4 0.8,1.4 1.2,-1.7 1.9,0.5 1.9,-0.7 5.1,1 0.8,1.3 1,0.3 0.6,-1.1 3.8,-1.6 2.5,3 0.6,0.5 2.3,-0.8 7.1,-0.6 2,1.1 0.5,1.2 2.7,0.9 0.8,-1.4 -1.8,-3.6 1,-3.3 0.8,-1.2 2.2,-2.3 1.1,-0.5 1.7,0.4 1.4,-0.8 5,0.1 2.6,0.8 1.7,-0.1 1.8,-0.9 0.5,-2.4 1.6,-0.6 3.7,0.9 1,-0.1 2.7,-1.2 1.6,-0.2 2,0.3 3.4,-0.2 2.5,1.4 1.4,1.4 1.7,2.7 4,3 -0.1,1 -2.9,0.5 1.3,1.9 0.5,2 1.2,1.7 -0.4,1 3.1,0.1 2.9,1 4.1,-0.5 1.5,2.2 1.9,0.2 0.2,0.9 1.4,2.8 0.9,1.1 -0.2,1.8 0.5,1 1.9,1.6 0.7,1 1.1,0.4 2.3,-1.4 2.8,0.4 2.7,2 h 2.3 l 1.7,1.1 1.4,-1.3 4.3,-0.9 2.3,-1 1,0.1 2.3,1.8 0.5,1.2 1.5,1.6 4.7,2.9 1.3,-0.6 0.9,-1.5 2.6,1.4 2.4,0.2 3.6,1.9 1.4,0.1 1.6,-0.6 2,1.8 1.9,0.2 4.4,2.3 2.9,-0.3 1,0.8 -0.1,1.7 1,0.9 -0.1,2.6 -1.7,2.1 -2.3,0.8 1.1,1.5 3.1,0.9 -0.9,0.9 -1.4,-0.2 -0.8,1 -0.3,2.3 2.5,0.7 1.2,2.8 v 1.1 l 1.2,0.3 -1.3,4.7 -0.1,1.8 -4.2,0.2 -6,-0.3 -0.9,0.2 -0.9,1.9 -2.3,1.4 -1.7,0.2 -0.8,0.8 v 2.3 l -0.4,1.3 1.1,0.7 -0.7,1.6 0.5,1.3 -0.5,0.1 -4.3,-0.2 -3.4,0.3 -2.1,2.4 h -1.5 l -3.2,1.5 -1.4,1.7 -1.4,-0.8 -3.1,0.5 -1.7,1.1 -3.1,-0.1 -2.3,0.6 -4.6,3.8 -1.3,0.1 -1,-1 -1.6,2.6 -2.4,1.2 0.6,3.1 2.8,4.5 3.6,3.9 1.7,1.4 2.4,0.7 3.1,-1.4 2.4,0.4 1.7,-1.2 1.5,-0.1 3.7,1 -1.1,2.5 -0.3,2.6 -1.9,0.6 -2.2,-0.1 -2.2,0.4 -2.7,-1.5 h -2.5 l -1.1,1.9 -2.3,1.3 -0.6,1.4 -2.6,-0.3 -2.1,0.2 -2.8,1.4 -1.9,2.8 -2.3,1.8 -1.9,0.5 -2,-0.1 -1.3,-0.6 -2.9,-1.8 0.7,-2 0.5,-3.5 -1.2,-2.9 -2.3,-1.4 -1.6,0.2 -0.9,-0.3 -3.7,-2.4 -1.9,-0.2 -1.9,0.5 -1.5,-1.2 3.5,-2.9 3.5,-2.4 1.7,-0.2 2.1,-1.2 2.2,-1.6 -1.3,-2.3 -1.9,0.6 -2.2,-1.1 -0.9,-0.8 -3.1,0.8 -1.8,-0.1 -3.8,0.8 -1.9,-0.8 -4,-2 -2.6,-0.3 v -1 l 1.8,-0.3 0.1,-1 -3.8,-0.6 -0.1,-1.3 2,0.5 3.2,0.2 2.9,0.5 2.1,-1.8 -2.4,0.5 -2.9,-0.5 -2.1,-1.8 -2.2,1.2 -3.2,-0.5 -2.4,0.8 -2.3,-0.2 -4.1,1.1 -0.4,2.9 -2,4 -3.1,3.7 -4.6,2.1 -1.7,-0.4 -0.9,1.1 0.2,1.3 1,0.9 1.1,3.1 z"
     id="UA"
     name="Ukraine" />
  <path
     class="state"
     d="m 528.54997,532.05 -2.1,0.4 -1.5,1.9 -1.6,-1.2 -1,0.1 -3.4,1.5 -0.2,2.6 -0.5,0.8 -1.7,-0.3 -0.1,-2.2 -1.4,-3.2 -1.9,-1.3 -1.4,-0.5 -2,-2.9 -0.5,-0.4 0.2,-1.3 -0.9,-1.5 2,-0.4 0.2,-0.7 1.6,-0.4 1.5,-0.5 v -1.4 l 1.7,-1.3 0.4,-1 -0.6,-1.6 1.7,-0.9 1.1,1.3 2.8,1.3 2.3,2.1 0.2,0.7 2.2,1.2 v 1.3 l 4.7,1.2 -0.2,1.2 -1.2,3.2 -1,0.9 z"
     id="XK"
     name="Kosovo" />
  <path
     class="state"
     d="m 306.74997,391.75 -0.6,1.2 -3.2,1.5 -3.9,-1.1 -1.2,0.6 -1.2,-0.7 -0.3,-1.3 2.8,-0.4 3.5,0.7 1.5,-0.6 1.2,0.5 z m -3.4,-5.3 1.5,1.4 -1.5,0.3 -1.6,-1 z m 18.1,-8.5 -3,-0.4 -0.9,-0.7 2.4,-1.7 3.2,-1.5 1.7,0.4 0.5,0.9 -1.1,1.1 z m -7.6,-11.5 -1.1,1.1 -0.6,-1.4 1.7,-1.4 z m -7.1,25.3 -2.6,-0.8 -2.2,0.5 -2.8,-0.7 -1.7,-1.3 1.2,-0.7 2.3,-0.1 4,0.7 1.2,-0.9 -0.6,-1 -2.3,-2.1 1.6,-2.7 1.4,-1 3.2,-3.8 0.9,-2 1.2,-5.5 1,-2 1.4,0.5 2,-0.8 3.4,-2 1,-1.7 1,-0.9 4,-1.6 2.1,-0.4 8.9,-0.5 1.8,1.7 2.7,0.6 0.1,4.3 -0.7,1.7 -1.1,3.8 -3.1,-0.1 -0.6,1.6 0.7,1 2.6,0.3 0.8,1 -0.6,2.6 -2.6,1.6 -0.3,0.9 1,0.9 -0.7,1 -4.5,1.3 -2.3,-0.8 -1.8,0.7 -0.7,1.1 3.1,4.1 v 1.2 l -1.3,2.8 0.7,1.2 -2.2,1.6 -0.5,0.8 1.9,1.2 -0.6,2.4 -1.2,-0.1 -2.4,-0.3 -0.7,-1.1 1.1,-1.3 1,-2.9 -2.6,-1.1 -1.7,-1.3 -1.9,0.4 -2.6,-1.4 -0.5,-1.6 -2.5,0.8 -1.1,-1.3 -1.5,1 -1.5,-0.8 -1.4,0.7 0.2,0.9 z m 18.1,-15.6 0.9,-0.9 -0.5,-1.9 -2.1,-0.3 -0.5,-0.8 0.4,-2.5 -2.8,-0.4 -0.4,-2.5 -1.5,0.3 -2.3,1.5 0.6,1.3 1.6,1.6 v 0.9 l -2.1,0.7 0.1,2.6 -0.2,1.6 5.4,1.4 z"
     id="NL"
     name="Netherlands" />
  <path
     class="state"
     d="m 274.94997,583.95 -0.4,1 -2,-0.4 v -1.5 l 1.2,-1.6 2.7,-0.7 0.8,1.3 z m 21.7,-13.6 1.2,0.5 1.3,-0.5 1.4,0.4 0.2,1 -2.2,3.5 -0.6,1.4 -2.1,1.3 -4,-1.7 -0.3,-1.6 -1.4,-0.7 -1.7,1.3 -1.4,-1 -0.3,-1.2 5.3,-3.7 1.5,-0.9 3.2,-0.9 0.5,1.2 z m 14.7,-0.8 -0.3,0.2 -3.9,-1.9 -1.6,-0.4 0.1,-1.4 2.6,-0.2 2.1,0.7 1.2,1.8 z m -77.4,-55.5 0.5,1.3 4.3,1.3 -0.3,3.2 1.8,-0.4 4.4,1.7 2.2,0.2 2.2,2.1 3.6,-0.4 3.2,2.1 3.1,-0.4 0.7,0.4 h 4.7 l 0.8,-2.4 4,1.1 2.5,1 1.7,0.3 1.1,1.5 v 2.1 l 0.7,0.4 2.8,-1.1 2.8,1.2 1.3,1.2 2.1,-1.1 4.7,1.2 1.2,-0.8 3.8,-1.1 3.1,0.6 1.2,2.2 -1.8,0.5 -0.2,1.4 1.2,1.3 0.1,2.1 -3,2.8 -8.7,4.7 -2.9,2.7 -6.6,1.5 -4.5,1.5 -2.2,0.5 -4.1,3.8 1.1,0.3 1.2,1.2 -0.4,0.6 -2.5,1.1 h -0.9 l -2.9,4.6 -2.6,3.3 -1.5,1.5 -1.5,2.1 -3.2,5.6 -0.1,1.6 1.6,5.5 2.2,2.7 2.4,1.1 0.6,1 -0.8,1 -2.4,1.7 -4.3,2.3 -1.8,1.9 -0.3,1.8 -1.3,0.8 -0.5,2.5 -1.8,4.4 1.3,1.2 -1.3,0.8 -6.5,0.3 -4.1,2.8 -2,2.4 -1.9,4.5 -2.2,2.6 -1,0.5 -1.5,-1.2 -1.9,-0.1 -1.9,0.3 -1,1 -1.5,0.5 -1.5,-0.5 -4.6,-0.2 -2.3,0.8 -1.9,-0.5 -3.2,-0.3 -7,0.6 -4,3.4 h -3.4 l -3.1,1.2 -2.1,3 -0.5,1.6 -1,-0.3 -0.3,1.2 -2.1,0.8 -2.4,-1 -2,-1.5 -1,-0.1 -1.6,-2.2 -1.2,-3.1 v -1.1 l -1.5,-0.6 -0.3,-1.4 0.2,-1.6 -1.2,-2 -5,-3.7 -3.7,-0.3 -3,0.5 -1.1,-6.4 0.8,-2.2 3.5,-4.3 2.1,-0.6 0.7,-2.4 -1.7,0.2 -3,-4.3 0.9,-4 3.2,-3 0.6,-2.4 -0.5,-0.8 -1.7,-0.4 -1.6,-3.2 -0.3,-1.9 -1.4,-1.2 -1.1,-1.9 1.1,-0.3 h 4.3 l 1,-0.5 1.7,-3.5 v -1.9 l -1.4,-1.3 0.2,-1 2.7,-2.1 -0.4,-1.1 0.4,-3.8 -0.4,-3.5 -0.8,-2 2,-1.6 1.1,-1.6 1.6,-1.4 2.1,-1.1 2.5,-2.5 -0.3,-1.1 -1.9,-0.9 -1.9,-0.2 -0.1,-3.1 -0.7,-1.1 -5.2,-0.1 -1.5,-0.5 -0.8,1.4 -2.5,0.9 h -1.4 l -2.2,-0.8 -2.9,0.1 -3,1.1 -0.9,-1.3 1.3,-1.9 -1,-1.8 -4.1,1 -1.9,0.9 -1.2,1.1 -1.3,-0.1 v -2.5 l 2.6,-2.6 -1.6,-0.2 1.2,-1.9 -1,-1 0.1,-2.6 -2.3,0.9 -0.5,-1.2 1.4,-2.2 -1.4,-0.2 -2.3,-2.5 0.8,-3.1 2,-1 1.9,-1.5 2.6,0.3 1.7,-0.3 3.6,-1.6 -0.4,-1.5 0.4,-0.7 3.2,-1.7 2,-0.2 1.9,-0.9 1.3,0.5 1.1,-0.1 1.3,0.6 1.7,1.6 2.5,0.6 2,-0.5 3.6,-0.1 1.7,0.2 3.2,-0.3 1.8,0.1 2.9,-0.8 2.3,1 4.4,0.4 2.6,0.8 7.2,1.4 h 2.7 l 3.7,-0.8 1.6,-0.5 1.5,0.3 2.1,-0.6 2.3,1 4.7,1.3 2.1,-1.3 3.4,0.6 3.3,1.3 1.8,0.1 2.6,-0.3 z"
     id="ES"
     name="Spain" />
  <path
     class="state"
     d="m 375.74997,523.35 -0.3,2.3 1,1.7 0.6,6.5 -1.8,3.2 0.1,3 -1.6,4.3 -0.8,1.1 -3.8,-2 -1.2,-1.1 1,-1.8 -2.2,-0.9 0.4,-1.7 -0.2,-0.9 -1.6,-0.5 1,-1.3 v -0.8 l -1.5,-1 -0.3,-0.9 1.3,-1.1 -0.6,-0.9 0.1,-1.3 0.9,-1.9 1.2,-0.9 2.8,-0.8 1.2,-1.1 1.9,0.6 0.6,-1.2 -0.2,-2.7 0.3,-1.1 1.3,0.5 z m -133.9,-47.9 -0.4,1.4 -1.9,-2.4 1,-0.5 z m 84.4,-55.6 2.1,1.2 h 1.4 l 2,-0.6 1.3,0.7 1.4,0.1 3.5,4.3 1.8,-0.7 1.4,0.4 0.3,0.9 2.1,0.1 3,-0.6 2,1.4 4.8,0.8 1.6,0.6 0.1,1.3 -3.5,3.8 -1.4,5.5 -1,1.8 -0.3,1.5 0.2,2.4 -0.6,2 v 1.5 l 1.1,1.3 -1.5,0.7 -0.8,1.4 -2.7,0.3 -0.8,-0.8 h -1.1 l -1.8,1.4 1.3,1.1 -0.6,0.9 -3.8,4 -2.1,0.9 -0.5,2.9 -3,2.2 -1.1,2.9 0.8,0.7 -0.3,1.5 -1.5,1 v 1 l 1.4,0.1 2.3,-1.6 -0.5,-1.3 2.3,-1.5 1.9,-0.1 2.2,0.3 0.8,2.2 -0.5,1.7 2.3,2.3 0.9,1.4 -2.6,1.7 0.1,1.6 0.9,0.6 1.7,2.6 1.8,1.6 -0.8,2.5 -1.2,0.3 -1.7,1.3 -1.9,-0.2 -0.8,0.4 1.5,3.1 3.2,1.4 0.5,1.7 -0.8,0.7 -1.4,2.5 0.7,1.3 0.1,1.4 0.9,0.9 5.1,2.4 3.3,-0.6 0.3,2 -2.1,2.6 0.2,1.5 -0.6,0.3 -0.8,0.3 -2.4,1.1 -3.9,3.4 -1.8,1 -0.7,1.8 -2,1.4 -2.4,0.5 -2.3,1 -1.1,-0.4 h -2.8 l -1.7,-1.2 -3.4,-0.8 -1.1,-1.8 -2.5,-0.1 -0.8,-1.5 -1.9,0.3 -1.5,0.7 -2,-0.1 -5.9,-1.8 -1.4,-1.4 -1.7,0.5 -1.6,1.6 -6.5,4.1 -2.6,4.3 -0.1,1.2 0.7,3.9 1.6,2.5 -3.1,-0.6 -3.8,1.1 -1.2,0.8 -4.7,-1.2 -2.1,1.1 -1.3,-1.2 -2.8,-1.2 v -1.5 l -2.6,-0.6 -0.9,0.7 -1.1,-1.5 -1.7,-0.3 -2.5,-1 -4,-1.1 -0.8,2.4 h -4.7 l -0.7,-0.4 -3.1,0.4 -3.2,-2.1 -3.6,0.4 -2.2,-2.1 -2.2,-0.2 -4.4,-1.7 -1.8,0.4 0.3,-3.2 -4.3,-1.3 -0.5,-1.3 2,-0.5 1.9,-1.9 1.7,-7.1 1.3,-8.3 1,-1.6 1.2,-0.4 -1,-1.2 -1.1,1.5 0.7,-7.6 0.5,-2.8 0.9,-3 3.1,2.4 0.8,1 0.9,3.4 0.6,0.1 -1.1,-4.6 -1.8,-2.3 -3.6,-2.3 -0.5,-1.3 1.8,-0.6 -0.5,-1.8 -0.5,-5.9 -3,-0.6 -4.8,-2.6 -1.7,-2.6 -1.6,-1.9 -0.4,-1.7 0.9,-1.8 -0.8,-1.1 -1.4,-0.8 1.1,-1.6 -3,-0.2 -1.8,-0.5 -0.3,-1.1 1.3,-1.4 -1.6,-0.8 -2.6,0.2 -0.2,-1.7 -2.2,0.3 -1.2,-0.3 -1.1,-1.1 -1.3,0.2 -2.2,-0.4 -0.8,-0.7 -4.8,-1.3 -2,-0.1 -1.9,0.6 -1.1,-0.3 -1.3,-2.2 -3.1,-1.1 0.6,-0.7 3.1,-0.6 0.6,-0.7 -2.2,-0.9 -0.2,-1.2 1.6,0.3 0.1,-1.2 -4,0.1 -0.4,-1.3 0.5,-1.4 2.3,-1.2 5.8,-1.4 2.5,0.2 1.7,-0.2 3,-1.6 2.9,-0.4 2.7,0.8 2.5,2.8 1.2,1 3.1,-1.7 4.4,0.1 0.9,0.9 1.2,-1.7 1,1 4.7,-0.2 -1.5,-2.5 -0.2,-6 -1.3,-1.7 -2.1,-4.3 0.2,-1.4 3.2,0.3 2.7,-0.6 1.3,0.4 0.3,2.8 1.1,1.6 h 2.2 l 2.3,0.5 3,0.1 4.3,0.8 1.8,-0.5 3.5,-2 -1.8,-0.7 -0.2,-0.7 0.9,-2.2 5.2,-2.5 3.7,-0.7 3.8,-1.3 2,-1.4 1.2,-1.8 0.5,-1.3 0.3,-6.8 1,-2.2 2.9,-1.6 6.4,-1.1 0.9,-0.5 0.9,2.2 v 1.2 l 2.9,2.4 3.2,-1 1.6,1.8 0.5,2 4.2,1.1 0.6,2 0.9,-0.3 3.6,0.4 1.6,1.1 -0.4,1.6 0.7,0.7 -0.7,1.4 0.5,0.6 2.3,0.3 2.2,-0.3 1.3,-0.6 0.5,-1.4 1.9,-0.6 -0.8,2.7 0.6,0.6 0.4,2 1.7,0.1 3.3,1.5 2.8,2.6 z"
     id="FR"
     name="France" />
  <path
     class="state"
     d="m 160.54997,611.15 -1.2,0.2 -4.5,2.5 h -1.3 l -2.5,-1.1 -4.5,-0.4 -1.5,-0.3 -1.8,0.7 h -1.5 l -1.1,1 -0.8,-0.3 1,-2.1 1.6,-4.1 v -2.6 l 0.4,-2.2 -0.3,-2.1 -0.7,-1.4 1.1,-3.5 v -1.8 l -0.9,-2.3 2.8,0.3 -1.7,-1.4 h -1.5 l -2.3,0.9 -1.5,0.1 0.1,-1.4 -0.5,-1.8 2,-0.6 1.6,-1.7 -0.3,-1.6 -1.2,1.1 -0.6,1.4 -2.8,0.7 -1.5,-0.5 v -1.9 l 0.6,-1.7 0.4,-2.3 0.8,-2.2 -0.2,-1.4 1.6,-1.3 1.4,-1.9 4.3,-8.9 -0.6,-1 1.7,-6.6 1.2,-2.3 0.6,-4.3 -0.2,-2 -0.7,-2 -0.7,-4.3 v -1.4 l -0.9,-1.8 0.1,-1 1.4,-1.7 1.2,-1.1 1.9,-0.9 4.1,-1 1,1.8 -1.3,1.9 0.9,1.3 3,-1.1 2.9,-0.1 2.2,0.8 h 1.4 l 2.5,-0.9 0.8,-1.4 1.5,0.5 5.2,0.1 0.7,1.1 0.1,3.1 1.9,0.2 1.9,0.9 0.3,1.1 -2.5,2.5 -2.1,1.1 -1.6,1.4 -1.1,1.6 -2,1.6 0.8,2 0.4,3.5 -0.4,3.8 0.4,1.1 -2.7,2.1 -0.2,1 1.4,1.3 v 1.9 l -1.7,3.5 -1,0.5 h -4.3 l -1.1,0.3 1.1,1.9 1.4,1.2 0.3,1.9 1.6,3.2 1.7,0.4 0.5,0.8 -0.6,2.4 -3.2,3 -0.9,4 3,4.3 1.7,-0.2 -0.7,2.4 -2.1,0.6 -3.5,4.3 -0.8,2.2 z"
     id="path1"
     name="Portugal" />
  <path
     class="state"
     d="m 697.74997,645.55 h -0.1 -0.1 l 0.1,-0.1 z m 0,0 h 0.1 0.1 l 0.1,0.1 h -0.1 -0.1 -0.1 z m -0.4,-0.3 h -0.1 v -0.1 h 0.1 v -0.1 l 0.1,0.1 v 0.1 z m 3.5,-0.8 0.2,0.1 0.3,0.3 0.2,0.4 0.1,0.3 0.2,0.2 0.2,0.1 h -0.2 -0.3 l -0.3,-0.1 -0.2,-0.2 h -0.2 l -0.7,0.1 -0.6,0.1 -0.1,0.1 -0.1,0.1 h -0.3 -0.3 l -0.1,-0.1 0.2,-0.1 h 0.1 l -0.1,-0.3 h -0.2 l -0.2,-0.1 v -0.4 l -0.1,-0.1 -0.3,-0.1 v -0.2 l 0.1,-0.1 0.2,-0.1 0.1,0.1 0.1,0.1 0.2,-0.1 0.1,-0.1 0.1,-0.1 0.1,-0.1 0.2,0.2 0.2,0.1 h 0.1 l 0.2,0.1 h 0.1 l 0.3,-0.1 h 0.2 l 0.1,0.1 h 0.2 0.1 0.1 z m -4,1.1 v 0.2 l -0.3,0.1 -0.3,0.3 v 0.2 l -0.1,0.3 v 0.3 0.3 0.3 0.1 h -0.1 l -0.1,0.1 v 0.3 l -0.1,0.1 h -0.2 -0.4 l -0.2,0.1 -0.1,0.1 -0.1,0.2 -0.1,0.1 -0.2,0.1 -0.4,0.1 -0.4,0.2 -0.3,0.1 -0.2,-0.3 0.1,0.5 -0.4,0.2 -0.9,0.2 -0.2,0.1 -0.1,0.1 -0.2,0.1 h -0.2 l -0.9,-0.1 -1,0.1 -0.1,0.1 -0.2,0.1 -0.6,0.5 -0.1,0.3 h -0.3 l -0.3,0.1 v 0.1 l -0.1,-0.1 -0.1,-0.2 0.1,-0.2 0.1,0.1 h 0.3 l -0.1,-0.4 -0.4,-0.1 -0.2,0.2 -0.1,0.1 -0.2,-0.1 v 0.1 l -0.4,-0.1 -0.3,-0.2 -0.1,-0.1 v -0.2 h -0.1 -0.1 -0.1 -0.1 l -0.1,0.1 v 0.1 h -0.2 l -0.1,0.2 h -0.2 -0.2 l -0.1,0.1 0.1,0.2 -0.2,0.1 h -0.5 l -0.6,-0.1 -0.5,-0.2 -0.7,-0.4 -0.3,-0.1 -0.3,-0.1 h -0.5 l -0.3,-0.1 -0.2,-0.2 -0.6,-0.4 -0.1,-0.1 -0.1,-0.4 v -0.1 l -0.1,-0.1 -0.4,-0.9 -0.1,-0.1 -0.3,-0.2 -0.2,-0.1 -0.1,-0.1 -0.1,-0.2 v -0.2 l 0.1,-0.2 -0.3,-0.4 -0.1,-0.2 v -0.4 l -0.1,-0.2 -0.3,-0.5 -0.2,-0.3 -0.1,-0.4 0.1,-0.3 h 0.1 l 0.3,0.1 0.4,0.5 0.3,0.1 0.2,0.1 h 0.6 l 0.4,-0.2 0.3,-0.4 0.3,-0.4 0.1,-0.5 0.1,-0.3 0.2,-0.1 0.1,-0.1 v -0.1 h 0.1 l 0.1,0.1 h 0.1 0.2 l 0.1,0.1 0.2,0.2 h 0.2 0.1 l 0.2,-0.2 0.1,-0.2 v -0.2 l 0.4,0.1 0.2,0.4 0.1,0.2 0.1,0.2 0.2,0.1 0.4,0.1 0.3,0.1 0.2,0.2 0.2,0.1 0.1,0.2 v 0.2 l 0.1,0.1 0.1,0.1 h 0.1 l 0.4,-0.1 0.1,-0.2 0.1,-0.2 0.1,-0.1 0.1,0.1 0.1,0.1 0.2,0.1 h 0.2 l 0.2,-0.1 0.2,-0.2 0.2,-0.2 0.2,-0.1 0.3,-0.2 0.1,-0.2 h 0.2 l 0.3,0.1 h 0.3 0.4 l 0.1,-0.1 h 0.1 l 0.1,-0.2 0.3,-0.2 h 0.2 l 0.2,0.1 0.1,0.1 h 0.2 0.1 l 0.2,0.2 0.2,0.2 0.2,0.1 0.3,0.1 h 0.1 l 0.1,-0.1 v -0.1 l 0.1,-0.2 0.3,-0.3 h 0.1 0.2 0.3 0.2 0.1 v 0.2 l 0.1,0.2 0.1,0.1 0.2,0.2 0.2,0.2 v 0.1 l 0.1,0.3 v 0.2 0.3 0.4 l -0.1,0.3 0.1,0.2 0.1,0.1 h 0.2 0.2 v -0.3 -0.4 l 0.1,-0.1 0.1,-0.1 0.1,-0.1 0.1,0.1 0.1,0.4 0.1,0.2 0.1,0.1 0.3,-0.1 v -0.2 l 0.1,-0.1 h 0.2 l 0.1,0.1 h 0.2 l 0.1,-0.1 0.1,0.1 h 0.1 l 0.3,0.2 h 0.2 0.1 z"
     id="CY"
     name="Cyprus" />
  <circle
     cx="254.44997"
     cy="390.04999"
     id="0"
     r="0" />
  <circle
     cx="429.94998"
     cy="411.25"
     id="1"
     r="0" />
  <circle
     cx="375.54996"
     cy="265.85001"
     id="2"
     r="0" />
</svg>
